<svg width="1200" height="900" viewBox="0 0 1200 900" fill="none" xmlns="http://www.w3.org/2000/svg">
  <rect width="1200" height="900" rx="64" fill="#F8FAFC" />
  <rect x="160" y="180" width="880" height="540" rx="64" fill="#0B1120" />
  <circle cx="600" cy="450" r="260" fill="#111827" stroke="#F8FAFC" stroke-width="10" />
  <path d="M600 270C560 330 560 360 580 390C600 420 620 450 580 510" stroke="#F59E0B" stroke-width="28" stroke-linecap="round" />
  <path d="M640 270C600 330 600 360 620 390C640 420 660 450 620 510" stroke="#A16207" stroke-width="24" stroke-linecap="round" opacity="0.85" />
  <circle cx="600" cy="470" r="140" fill="#0F172A" stroke="#F59E0B" stroke-width="12" />
  <rect x="520" y="410" width="160" height="140" rx="70" fill="#F8FAFC" />
  <path d="M520 470H460C420 470 400 510 420 540C460 600 560 610 640 570" stroke="#F8FAFC" stroke-width="16" stroke-linecap="round" />
  <text x="320" y="720" fill="#FBBF24" font-family="'Inter', 'Helvetica', 'Arial', sans-serif" font-size="72" font-weight="800">KAVOS STUDIJA</text>
  <text x="320" y="780" fill="#E2E8F0" font-family="'Inter', 'Helvetica', 'Arial', sans-serif" font-size="28" font-weight="500">Rankų darbo simbolis, sukurtas šiltoms istorijoms</text>
</svg>
