<svg width="80" height="130" viewBox="0 0 80 130" fill="none" xmlns="http://www.w3.org/2000/svg">
<path d="M44.1941 85.4486C45.5611 90.738 47.1223 95.8499 48.1709 101.062C49.3437 106.892 49.2738 112.787 47.1845 118.466C45.5844 122.814 43.0446 126.537 38.7066 128.581C34.5162 130.557 30.2676 130.645 26.4073 127.721C22.8849 125.051 22.3645 120.885 25.0519 117.663C25.7121 116.872 26.6326 116.29 27.5413 115.703C25.7859 117.32 25.2811 119.291 25.6461 121.54C26.2714 125.402 30.8967 127.571 34.155 125.402C35.9454 124.21 36.7221 122.293 36.7493 120.132C36.7842 117.428 35.759 115.047 34.322 112.844C33.2113 111.143 31.9997 109.496 30.7064 107.925C27.2306 103.701 24.9743 98.9749 24.4344 93.5081C23.6927 85.954 25.0675 78.9209 29.7783 72.7712C30.586 71.7179 31.6579 70.846 32.6715 69.9664C33.5414 69.2141 34.5085 68.5659 35.2968 67.9757C35.9298 68.8206 36.5629 69.6655 37.1959 70.5104C35.5182 71.9456 35.4716 72.2658 36.4541 75.194C36.1279 75.9425 35.7512 76.4672 35.6852 77.0266C35.4677 78.8553 35.3434 80.6994 35.2191 82.5358C35.0056 85.684 38.8891 89.0327 42.2329 87.2002C42.6096 86.9919 42.9475 86.7025 43.2737 86.4131C43.5688 86.1508 43.8252 85.8422 44.1902 85.4564L44.1941 85.4486ZM34.9201 84.2295C34.8153 84.2218 34.7143 84.2179 34.6094 84.2102C34.4735 84.5073 34.2483 84.7966 34.2172 85.1053C34.0813 86.3707 33.8366 87.6554 33.9298 88.9093C34.2987 93.9131 35.8677 98.6199 37.7085 103.257C39.3241 107.327 40.8853 111.425 41.4212 115.807C41.5727 117.061 41.5494 118.338 41.6076 119.604C41.8523 118.084 42.0232 116.56 42.062 115.036C42.1785 110.568 41.161 106.305 39.6891 102.111C38.1862 97.8367 36.7609 93.5428 36.0891 89.0327C35.8483 87.4085 35.3201 85.8306 34.924 84.2295H34.9201Z" fill="black"/>
<path d="M25.8636 12.3545C26.1743 13.6586 26.485 14.9703 26.7801 16.1971C25.4714 17.1694 24.0383 18.1146 22.7412 19.2141C18.3722 22.9178 16.077 27.7519 15.3197 33.3268C14.9352 36.1508 14.7876 38.998 15.6925 41.7835C15.7546 41.9726 15.7041 42.3275 15.5682 42.4355C13.6924 43.944 13.7585 45.9309 14.3255 47.9217C14.9352 50.0474 15.7507 52.1153 16.4847 54.2257C12.007 56.7141 12.7759 61.934 16.9702 64.0019C14.5197 66.8993 14.3022 70.5142 13.7973 74.0096C13.541 75.7881 13.5721 77.6053 13.4594 79.704C5.22236 72.2851 0.717412 63.2033 0.0688544 52.4085C-0.94476 35.5104 9.30789 18.9711 25.8597 12.3468L25.8636 12.3545Z" fill="black"/>
<path d="M66.6839 79.3915C67.0373 73.8167 66.0159 68.6662 63.01 63.9324C64.9052 62.9525 66.4315 61.5868 66.5518 59.2874C66.6684 57.0266 65.4567 55.4525 63.4489 54.3221C64.0819 52.7095 64.7693 51.1354 65.313 49.515C65.6742 48.4309 65.9344 47.2889 66.0548 46.1547C66.2023 44.7542 65.6547 43.5312 64.68 42.4896C64.4897 42.2889 64.3499 41.8684 64.4237 41.6254C66.1324 36.1817 64.8237 31.0968 62.3964 26.2357C60.5595 22.559 58.0235 19.3762 54.4467 17.1578C54.0234 16.8954 53.5729 16.6794 53.2156 16.4865C53.5419 15.1246 53.8525 13.809 54.2098 12.3198C67.9422 18.6045 76.7385 28.7897 79.4453 43.8051C82.1017 58.5274 74.785 72.7943 66.6878 79.3954L66.6839 79.3915Z" fill="black"/>
<path d="M36.8891 57.7982C35.9531 55.7959 35.891 55.0629 36.5473 54.0752C39.3319 57.9641 40.1629 58.0451 43.7086 54.7542C44.0323 55.23 43.9857 56.2177 43.5688 57.7172C48.7185 59.3453 52.4894 62.8676 55.4526 67.1693C58.4041 71.4517 60.2721 76.2627 61.0877 81.4209C61.0721 70.6608 56.9478 62.0459 47.4019 56.0428C48.0816 56.0428 48.4971 56.0312 48.9088 56.0428C51.0137 56.1084 52.4545 55.0706 53.3438 53.2766C54.0429 51.8607 54.5943 50.3676 55.2856 48.728C55.2856 49.1524 55.2934 49.4572 55.2856 49.7619C55.2157 52.8946 55.5108 55.9502 57.1769 58.7241C57.9497 60.0127 58.7653 61.2781 59.4915 62.5899C64.3538 71.39 65.3324 80.4911 61.4838 89.9124C60.9673 91.1817 60.2449 92.3661 59.6003 93.5814C59.4721 93.8244 59.2701 94.0289 59.0022 94.3838C59.0022 93.0335 58.9634 91.8452 59.01 90.657C59.2391 84.3375 57.5924 78.5119 54.1982 73.1994C51.7865 69.4224 48.2874 66.8568 44.264 64.9471C42.1241 63.9324 41.3125 63.2766 40.1202 61.6987C39.2309 63.2727 37.6658 63.9479 36.159 64.6693C33.2774 66.0466 30.6016 67.6979 28.3802 70.032C24.8306 73.7588 22.8072 78.211 21.8907 83.211C21.215 86.9031 21.1917 90.6068 21.6926 94.3221C21.7043 94.3992 21.6616 94.4841 21.6111 94.704C21.3742 94.4147 21.18 94.2295 21.0363 94.0057C15.2731 84.8892 14.7255 75.4216 19.2499 65.6801C20.3528 63.3036 21.6849 61.0235 23.0364 58.7704C24.7451 55.9271 25.0209 52.8252 24.982 49.6346C24.982 49.4456 24.9626 49.2604 24.9587 49.0714C24.9587 49.0096 24.982 48.9479 24.9587 49.0559C25.7044 50.6724 26.3724 52.4857 27.3394 54.1254C28.4423 56.0004 30.3491 56.4286 32.4696 56.2125C28.0268 58.7897 24.8111 62.4625 22.3412 66.8221C19.8479 71.2203 18.7916 75.9579 19.1994 81.0273C19.2848 80.6878 19.378 80.3445 19.4557 80.0011C20.613 74.7426 22.6247 69.8468 25.9413 65.5683C28.3103 62.5166 31.1569 59.9741 34.7842 58.4348C35.4405 58.157 36.1512 58.0065 36.8891 57.7789V57.7982Z" fill="black"/>
<path d="M33.9492 16.691C35.3822 15.8924 36.9279 15.5876 38.5435 15.6069C38.761 15.6069 39.0328 15.7496 39.1881 15.9117C43.196 20.005 47.1883 24.1138 51.569 27.833C54.1166 29.9934 56.6681 32.1771 58.2099 35.2519C58.2954 35.2018 58.3808 35.1516 58.4662 35.1015C57.6274 33.5505 56.8546 31.9649 55.938 30.4603C53.7788 26.9147 50.5903 24.3723 47.3903 21.8183C45.0019 19.9086 42.7843 17.7828 40.493 15.7496C40.528 15.6416 40.5668 15.5336 40.6018 15.4256C41.8212 15.5799 43.0678 15.6185 44.2562 15.9117C51.0564 17.5822 56.3885 21.2666 59.7284 27.4896C61.9886 31.6987 62.4275 36.2203 61.6391 40.8885C61.577 41.2589 61.5537 41.6408 61.4372 41.9919C61.1187 42.9641 61.1381 43.6933 62.1401 44.3993C63.1809 45.1323 63.2469 46.39 62.9401 47.5744C62.7382 48.3538 62.4197 49.1099 62.1129 49.8623C61.4527 51.4788 60.8119 53.0991 60.074 54.6809C59.7905 55.2905 59.274 55.7882 58.8624 56.3399C58.7109 56.2936 58.5633 56.2434 58.4158 56.1971C58.4158 54.2527 58.3264 52.3044 58.4391 50.3677C58.5789 47.9062 58.3653 45.4988 57.74 43.1223C56.672 39.0636 54.0428 36.1624 50.7185 33.782C48.4505 32.1539 46.1281 30.5953 43.895 28.9248C40.0348 26.0351 37.1065 22.3623 34.9434 18.0722C34.7143 17.6208 34.3414 17.2388 33.9453 16.7064L33.9492 16.691Z" fill="black"/>
<path d="M33.5453 16.7296C33.3278 17.5475 33.5401 19.0187 34.1822 21.1431C29.8171 22.7442 23.7082 29.6385 22.5004 34.4456C25.6694 29.2681 30.7919 26.3399 34.9395 22.2697C36.1085 23.9016 37.1881 25.414 38.3105 26.9803C36.4425 28.9402 34.0929 30.3831 31.7938 31.8877C29.052 33.6779 26.4073 35.5567 24.4577 38.265C22.749 40.6339 21.8868 43.2882 21.7315 46.1277C21.5839 48.8707 21.7276 51.6292 21.7198 54.38C21.7198 54.9664 21.6188 55.5528 21.5334 56.4518C21.013 55.9695 20.5509 55.7149 20.3528 55.3291C18.9236 52.5744 17.7197 49.7272 17.1216 46.664C16.9508 45.7843 17.2304 44.9356 18.0654 44.6076C18.9858 44.2488 18.8537 43.6894 18.7605 42.9834C18.512 41.0698 18.1197 39.1447 18.1353 37.2311C18.2285 27.968 22.846 21.5521 31.0326 17.478C31.5336 17.2272 32.0929 17.0884 32.6288 16.9225C32.889 16.8414 33.1647 16.8106 33.5492 16.7296H33.5453Z" fill="black"/>
<path d="M51.3826 107.331C51.3476 99.65 49.235 92.6323 46.2213 85.8152C45.2815 83.6932 44.6485 81.4826 44.4582 79.1331C44.3689 78.0142 43.8951 76.9301 43.6077 75.8267C43.5572 75.6416 43.4756 75.3908 43.5572 75.2519C44.5048 73.6161 44.4853 72.0613 43.3086 70.6454C43.8057 69.8044 44.2912 68.9942 44.8232 68.0991C45.0368 68.2457 45.3747 68.4888 45.7242 68.7164C50.4428 71.8221 53.4215 76.1161 54.9322 81.5443C56.0973 85.7187 56.272 89.9201 55.938 94.1871C55.6118 98.346 53.806 103.658 51.3904 107.331H51.3826Z" fill="black"/>
<path d="M50.7069 11.4016C46.1825 6.01583 33.856 5.76891 29.1569 11.4556C28.6831 8.43481 30.1239 4.14469 33.4676 2.05364C37.7668 -0.635403 42.1436 -0.681699 46.4505 1.90318C49.7437 3.88234 51.3865 7.75194 50.7069 11.3978V11.4016Z" fill="black"/>
<path d="M50.1049 15.059C43.3436 11.8029 36.6794 11.6447 29.9957 15.1516C29.2229 14.2141 29.219 14.1678 30.1084 13.3499C32.3764 11.2743 35.1221 10.3214 38.1357 10.086C41.93 9.79283 45.6077 10.1208 48.8505 12.3893C49.2311 12.6555 49.5768 12.9834 49.9185 13.2998C50.4739 13.8129 50.6408 14.3839 50.1049 15.0552V15.059Z" fill="black"/>
<path d="M37.9104 48.7203C36.6522 46.0852 35.4327 43.5891 32.5511 42.7056C29.6928 41.8299 27.1995 42.914 24.7956 44.2758C25.0208 42.4317 27.0248 40.5374 28.9044 39.9086C32.0191 38.863 34.9434 39.515 36.8541 41.6717C38.4153 43.4309 38.8037 47.2465 37.9104 48.7203Z" fill="black"/>
<path d="M55.2312 44.1369C53.5768 43.1261 51.8175 42.4973 49.8602 42.3854C47.2738 42.2388 44.9514 43.5004 43.7591 45.8036C43.429 46.4402 43.1028 47.0806 42.7222 47.6863C42.6018 47.8754 42.26 48.0991 42.1008 48.049C41.9066 47.9911 41.6814 47.6593 41.6775 47.4394C41.6193 44.4726 42.1746 41.6177 45.3203 40.1285C48.1087 38.8052 51.7632 39.5343 53.7904 41.8028C54.3885 42.4703 54.8817 43.2265 55.4215 43.944C55.3594 44.0096 55.2972 44.0752 55.2351 44.1408L55.2312 44.1369Z" fill="black"/>
<path d="M40.0348 38.4155C38.5396 38.4232 37.2075 37.0382 37.2114 35.4873C37.2153 34.1061 38.5668 32.7056 39.8833 32.7211C41.4251 32.7365 42.9358 34.2257 42.928 35.7265C42.9203 37.2581 41.6775 38.4116 40.0386 38.4194L40.0348 38.4155Z" fill="black"/>
<path d="M40.0387 81.3321C41.4562 81.3167 42.6562 82.3507 42.6679 83.5929C42.6795 84.6963 41.4834 85.7843 40.2833 85.7727C39.0289 85.7612 37.7357 84.5883 37.7396 83.4733C37.7474 82.3468 38.8192 81.3437 40.0387 81.3321Z" fill="black"/>
<path d="M18.2363 56.9186C19.2887 56.9263 20.6052 57.9487 20.5664 58.7318C20.5237 59.5922 19.1489 61.0582 18.3838 61.0659C17.0285 61.0775 15.9838 60.086 16.0032 58.8167C16.0226 57.6902 16.9391 56.9109 18.2363 56.9224V56.9186Z" fill="black"/>
<path d="M40.0425 76.2704C41.4833 76.2781 42.4581 77.0536 42.4659 78.2033C42.4736 79.2835 41.3862 80.2017 40.1396 80.1631C38.8813 80.1246 37.8755 79.2063 37.891 78.103C37.9066 76.9726 38.7415 76.2627 40.0386 76.2704H40.0425Z" fill="black"/>
<path d="M63.8916 58.8476C63.8994 60.0397 62.9557 61.1894 61.942 61.228C61.0449 61.2627 59.643 59.7967 59.6507 58.8321C59.6585 57.9255 60.7187 57.0073 61.7906 56.988C63.0722 56.961 63.8877 57.6825 63.8916 58.8476Z" fill="black"/>
<path d="M40.1513 65.8615C41.328 65.8499 42.4853 66.7642 42.4969 67.7133C42.5086 68.7087 41.3746 69.6848 40.2367 69.6616C38.9396 69.6346 37.9027 68.8167 37.8988 67.8136C37.8949 66.8028 38.9668 65.8692 40.1513 65.8576V65.8615Z" fill="black"/>
<path d="M40.1979 74.9857C39.0406 74.9741 37.9299 74.0212 37.9299 73.0374C37.9299 72.0767 39.0134 71.1547 40.1357 71.1624C41.46 71.1701 42.3222 71.8916 42.295 72.9641C42.2639 74.1909 41.4251 75.0011 40.1979 74.9895V74.9857Z" fill="black"/>
<path d="M52.9127 45.4024C51.3049 47.8792 49.0408 48.8476 46.8971 48.0953C45.6271 47.6516 44.4155 46.3553 44.4621 45.3946C47.2777 47.3815 50.0816 46.4479 52.9088 45.4024H52.9127Z" fill="black"/>
<path d="M27.4248 45.3599C30.0501 46.5752 32.6288 47.424 35.5803 45.4795C35.4289 46.0814 35.4405 46.5173 35.2308 46.7681C34.1356 48.076 32.6832 48.5891 31.0132 48.2766C29.3278 47.9602 28.1005 46.988 27.4248 45.3599Z" fill="black"/>
<path d="M34.9201 84.2295C35.3162 85.8306 35.8405 87.4085 36.0852 89.0327C36.757 93.5428 38.1823 97.8367 39.6852 102.111C41.1571 106.301 42.1746 110.568 42.0581 115.036C42.0193 116.56 41.8484 118.084 41.6037 119.604C41.5455 118.338 41.5688 117.061 41.4173 115.807C40.8814 111.425 39.3202 107.327 37.7046 103.257C35.8638 98.6199 34.2948 93.917 33.9259 88.9093C33.8327 87.6554 34.0774 86.3707 34.2133 85.1053C34.2482 84.7966 34.4696 84.5073 34.6055 84.2102C34.7104 84.2179 34.8114 84.2218 34.9162 84.2295H34.9201Z" fill="white"/>
</svg>
