<svg width="292" height="355" viewBox="0 0 292 355" fill="none" xmlns="http://www.w3.org/2000/svg">
<path fill-rule="evenodd" clip-rule="evenodd" d="M125.348 0.560427C124.137 1.27543 123.716 2.18109 123.716 4.05996C123.716 5.20793 123.932 5.8276 124.598 6.55055C125.363 7.38073 125.699 7.48401 127.152 7.33307L128.821 7.16624L127.767 8.2308C126.793 9.21988 126.731 9.44232 126.914 11.1265C127.159 13.4225 127.664 14.2924 129.186 15.0472C129.852 15.3729 130.756 15.9648 131.192 16.354C131.934 17.0253 131.956 17.1166 131.444 17.8992C131.148 18.356 130.903 19.4682 130.903 20.358C130.903 21.7125 131.1 22.2012 132.066 23.2498C132.714 23.9529 133.559 24.5169 133.954 24.5169C134.525 24.5169 134.595 24.9658 134.163 25.8714C133.519 27.218 133.504 29.236 134.141 30.5586C134.598 31.4961 134.576 31.6193 133.932 31.9926C133.548 32.2112 133.135 32.2588 133.007 32.084C132.886 31.9132 132.278 31.1704 131.66 30.4394C130.65 29.2438 130.573 28.9976 130.903 28.0482C131.667 25.8634 130.145 23.0313 128.202 23.0313C127.529 23.0313 126.841 22.658 126.164 21.919C125.568 21.2716 124.774 20.8069 124.269 20.8069C123.471 20.8069 123.427 20.7314 123.742 19.7502C124.207 18.3044 123.65 16.8862 122.264 15.9726C119.867 14.3917 117.075 15.6986 116.647 18.6062C116.526 19.4086 116.34 20.0601 116.234 20.0601C116.127 20.0601 115.315 19.2934 114.43 18.3481C112.845 16.6598 112.831 16.6281 113.493 15.921C113.855 15.5238 114.305 15.3053 114.481 15.4245C115.041 15.7978 114.85 14.8246 113.947 12.7632C113.387 11.4761 112.728 10.5784 112.055 10.205C110.617 9.39863 108.806 9.82365 107.88 11.1861C107.32 12.0084 107.053 12.1514 106.694 11.8336C106.31 11.484 106.325 11.2616 106.793 10.491C107.946 8.58829 106.438 5.57337 104.342 5.57337C103.098 5.57337 101.458 7.29732 101.458 8.59624C101.458 10.6697 103.189 12.2666 104.909 11.778C105.996 11.4682 106.087 12.489 105.092 13.7721C103.84 15.3808 103.892 17.1842 105.202 18.6062C105.783 19.2418 106.57 19.6946 107.082 19.6946C107.88 19.6946 107.924 19.782 107.62 20.656C106.976 22.507 107.221 23.794 108.491 25.1684C109.538 26.3044 109.867 26.4553 111.06 26.3362C112.307 26.2052 112.403 26.2568 112.187 26.944C111.682 28.5408 112.04 29.9033 113.31 31.1784C114.452 32.3264 114.697 32.4177 116.241 32.2508C118.345 32.0284 118.897 32.7156 117.679 34.0304C117.236 34.519 116.87 35.3253 116.87 35.8338C116.87 36.8466 117.529 38.658 117.895 38.658C118.209 38.658 118.407 46.1417 118.191 49.6809C118.078 51.4884 118.034 51.5717 117.467 51.0156C116.94 50.4953 116.878 49.8041 116.954 45.3036C117.013 41.804 116.921 40.0444 116.647 39.7464C116.029 39.0712 115.608 40.2946 115.33 43.5916C114.935 48.1278 114.36 46.9798 114.334 41.6054C114.313 38.3324 114.166 36.7117 113.822 36.0482L113.336 35.1188L112.897 36.231C112.651 36.8466 112.446 38.8328 112.439 40.6838C112.424 43.9966 112.417 44.0205 111.759 43.2897C111.228 42.7097 111.008 41.657 110.716 38.2806C110.295 33.4901 110.138 32.7077 109.64 32.7077C109.417 32.7077 109.333 34.2449 109.409 36.9698C109.508 40.6084 109.453 41.1565 109.044 40.7157C108.703 40.3422 108.583 39.2857 108.626 36.9182C108.674 33.7881 108.268 31.3293 107.284 28.8029C106.662 27.2021 106.563 28.1554 106.87 32.95C107.02 35.234 107.038 37.0294 106.921 36.954C106.801 36.8785 106.347 35.5914 105.904 34.1058C105.154 31.5637 103.753 29.363 102.867 29.363C102.249 29.363 102.446 30.1496 103.983 33.8556L105.461 37.4186L102.333 33.947C100.617 32.0364 99.0252 30.4753 98.8019 30.4753C98.5751 30.4753 98.3922 30.8962 98.3922 31.4126C98.3922 32.0681 99.1862 33.24 101.052 35.3572L103.701 38.372L101.956 37.2598C101.001 36.6441 99.8593 36.0165 99.4314 35.8734C98.6739 35.6153 98.6666 35.6312 99.2008 36.4653C100.057 37.7921 102.315 39.2777 104.839 40.1674C106.969 40.9222 108.315 41.7722 107.964 42.1457C107.88 42.229 106.157 41.6213 104.137 40.7912C100.588 39.3293 99.2703 39.1625 100.653 40.3422C101.682 41.2241 104.312 42.6501 106.691 43.6233C109.647 44.8348 112.692 46.5469 112.201 46.7296C111.982 46.813 110.518 46.3006 108.948 45.6014C106.003 44.2866 102.721 43.1188 101.912 43.1188C101.557 43.1188 101.575 43.3254 102.018 44.0484C102.82 45.375 106.892 47.4286 110.891 48.525C113.358 49.2042 114.481 49.6889 114.909 50.2926C115.82 51.5638 115.666 51.6313 113.548 50.8686C112.461 50.4754 110.979 50.2013 110.258 50.2529C109.142 50.3364 108.872 50.2093 108.476 49.3949C108.015 48.4337 106.142 47.2142 105.117 47.2142C104.825 47.2142 103.807 47.5518 102.86 47.953L101.136 48.6918V47.8617C101.136 45.5578 98.7581 43.5757 96.5407 44.0245C95.4612 44.2469 93.6024 46.0225 93.6024 46.8289C93.6024 46.9957 93.1488 47.2022 92.589 47.2857C91.7181 47.4286 91.5498 47.3056 91.3742 46.4476C91.0448 44.803 89.7349 43.7504 87.9676 43.7146C86.9979 43.6908 86.4161 43.5081 86.4161 43.2261C86.4161 42.5349 85.0989 41.3552 84.0817 41.1486C82.918 40.9064 81.1069 41.7206 80.6239 42.6938C79.6067 44.7554 80.5837 47.3214 82.629 47.9928C84.4257 48.5806 84.3415 49.5061 82.5047 49.3712C81.3813 49.2797 81.0887 49.105 81.0045 48.4654C80.9459 48.0325 80.5105 47.2777 80.0275 46.7892C79.3396 46.0901 78.8091 45.9153 77.4186 45.9392C75.8965 45.959 75.5599 46.1138 74.7695 47.1466C73.6389 48.6164 73.2546 48.6244 72.7058 47.1944C72.1752 45.808 71.4398 45.3512 69.72 45.3512C68.6735 45.3512 68.1687 45.6094 67.3014 46.5746C66.6977 47.254 66.2073 47.9848 66.2073 48.2152C66.2073 48.9977 65.2194 49.0493 64.9998 48.2906C64.8828 47.8776 64.2717 47.2857 63.6533 46.964C60.7079 45.4426 57.9745 49.4784 59.9723 52.402C60.4627 53.1169 60.9896 53.383 62.0836 53.4744C63.7594 53.6094 64.656 52.9501 65.3987 51.0394C65.9183 49.7048 66.5513 49.4306 66.5513 50.535C66.5513 50.9322 67.0123 51.671 67.5832 52.1874C68.4942 53.0176 68.5711 53.2281 68.2198 54.0504C67.66 55.3772 68.121 57.4625 69.1748 58.3602C70.4775 59.4725 72.8266 59.397 73.9279 58.2093C74.5572 57.5221 74.7695 57.4386 74.7695 57.8757C74.7695 58.9481 76.9978 60.978 78.176 60.978C79.5737 60.978 81.1728 60.0722 81.4436 59.1229C81.6484 58.4278 81.7253 58.4198 82.3986 58.9322C83.2036 59.548 85.2745 59.671 86.0246 59.1586C86.354 58.9322 86.7967 59.2064 87.5175 60.0961C88.0773 60.7913 88.7506 61.3513 89.0177 61.3513C89.7458 61.3513 89.5921 61.9472 88.6957 62.5866C88.2529 62.8965 87.7078 63.6433 87.4809 64.247L87.0675 65.3276L85.9259 64.0842C84.6561 62.7058 83.1778 62.4556 81.5935 63.3533C81.0228 63.675 80.0641 63.7982 78.948 63.683C77.3418 63.5162 77.1185 63.5917 76.116 64.6801C75.1464 65.7288 75.0512 66.0346 75.1976 67.4725C75.3439 68.9105 75.2743 69.1409 74.5462 69.4984C73.884 69.8241 73.6827 69.7962 73.5217 69.3394C73.2839 68.6602 71.641 67.679 70.7519 67.679C70.4079 67.679 69.5444 67.9969 68.8418 68.3861L67.5686 69.0932L67.0965 67.8777C66.0866 65.256 63.4923 64.6245 61.7068 66.5669C60.1334 68.2709 59.4674 68.553 58.3038 68.0366C57.7147 67.7705 56.7414 67.687 55.9328 67.8221C55.0656 67.977 54.5717 67.9214 54.5717 67.6712C54.5717 67.4486 54.1655 66.8648 53.6605 66.3682C52.3726 65.0693 50.7041 65.1448 49.4051 66.543C48.355 67.687 48.1647 68.8112 48.7464 70.4716C49.1307 71.5758 51.1724 72.6721 52.3872 72.422C53.0604 72.2829 53.1227 72.3544 52.8263 72.9462C52.4274 73.7685 52.2116 73.7844 51.3334 73.0694C50.5833 72.4537 47.8683 72.3305 47.5464 72.8946C47.1841 73.5341 46.7889 73.3037 46.3754 72.2153C45.8852 70.9204 44.3704 69.9154 42.925 69.9154C42.1273 69.9154 41.5016 70.2729 40.6198 71.2262C39.5038 72.4457 39.4269 72.6642 39.5952 74.2849C39.7343 75.5957 40.0234 76.267 40.7808 77.0058C41.7211 77.9116 41.7468 78.0228 41.2418 78.6941C40.6527 79.4686 39.749 79.4408 38.6548 78.6106C37.4548 77.697 35.4642 77.9632 34.3372 79.1826C33.7811 79.7825 33.3347 80.5729 33.3347 80.9464C33.3347 81.5024 33.053 81.6256 31.7613 81.6256C30.4733 81.6256 30.0525 81.8004 29.1964 82.837C28.5634 83.6037 28.201 84.4577 28.201 85.1569C28.201 86.1936 28.1168 86.269 26.8874 86.269C25.4093 86.269 24.2932 87.2741 23.9091 88.9622C23.7736 89.5264 23.4737 89.9832 23.2285 89.9832C22.9833 89.9832 22.3795 90.4994 21.8966 91.131C20.6342 92.7637 20.6964 94.4757 22.0575 95.715C23.887 97.3913 26.0678 96.728 27.0375 94.2096C27.5205 92.9584 27.5351 92.9544 28.5304 93.5065C29.0828 93.8202 29.9098 94.0705 30.3818 94.0705C31.3003 94.0705 33.3347 92.426 33.3347 91.6793C33.3347 91.429 33.7115 90.845 34.1689 90.3724L35.0032 89.5184L36.046 90.3248C37.6596 91.576 39.1123 91.6793 40.5283 90.6465C41.1869 90.1578 41.8748 89.3992 42.0578 88.9464C42.3431 88.2552 42.581 88.1638 43.6421 88.3465C44.33 88.4697 45.2119 88.3704 45.6254 88.1321C46.2071 87.7984 46.5218 87.8222 47.1182 88.279C48.1208 89.0457 49.4966 89.002 50.4991 88.1877C50.9492 87.8222 51.7543 87.3098 52.2958 87.0674C52.8263 86.8173 53.4374 86.1301 53.6422 85.5382L54.0118 84.4657L54.9376 85.2125C56.123 86.1618 57.9453 86.1538 59.6028 85.1966C60.3236 84.7756 61.5238 84.2433 62.2812 84.0009C63.0313 83.7626 64.151 83.2541 64.7621 82.8728C65.8634 82.1896 65.8927 82.1896 67.3636 83.0317C68.8309 83.8778 68.8382 83.9096 68.249 84.7001C67.832 85.2482 66.994 85.6374 65.6475 85.8877C62.0836 86.559 59.0246 87.4329 59.0246 87.7825C59.0246 88.43 59.9431 88.4974 63.6533 88.1201C65.7098 87.9057 67.51 87.8738 67.6673 88.0406C68.2125 88.6365 65.3438 89.5342 62.2812 89.7488C58.5929 89.999 56.9793 90.4478 55.1205 91.7586C53.9057 92.6008 53.8215 92.7557 54.4545 92.855C54.8607 92.9225 56.8329 92.6326 58.838 92.2154C63.5546 91.2264 63.7667 91.2304 62.4752 92.4101C61.6995 93.1292 60.8213 93.4628 59.1088 93.6972C55.8486 94.146 51.1505 96.1202 51.1505 97.0338C51.1505 97.5978 51.747 97.4826 55.2193 96.279C56.9866 95.6713 58.6624 95.1669 58.9405 95.1669C59.9395 95.1669 58.6697 96.2553 57.1952 96.6764C53.7374 97.6574 48.1281 101.296 48.86 102.078C48.977 102.21 50.7443 101.455 52.786 100.414C56.8365 98.3328 57.0488 98.2573 56.7744 99.0358C56.672 99.3258 55.9695 99.8342 55.212 100.16C52.4201 101.371 47.7366 105.467 47.7366 106.694C47.7366 107.302 48.0512 107.119 50.9345 104.875C55.3803 101.411 55.4718 101.411 53.3751 105.042C51.5018 108.283 49.932 112.16 50.3308 112.585C50.8065 113.093 53.6276 109.03 55.3363 105.368C56.339 103.23 57.2867 101.479 57.4476 101.479C57.6086 101.479 57.638 101.769 57.5062 102.126C57.3709 102.484 57.1952 104.529 57.1111 106.678L56.9574 110.583L57.6232 109.272C58.3478 107.866 59.2662 103.548 59.6065 99.9852C59.7711 98.297 60.0163 97.5978 60.6822 96.9425C61.4725 96.156 61.5238 96.148 61.2786 96.8352C60.5212 98.9604 59.848 104.454 60.3455 104.454C60.7921 104.454 61.5311 102.333 62.4679 98.3288C62.9875 96.1122 63.5509 94.6346 64.118 93.9593C64.5937 93.3953 65.0767 92.9385 65.1902 92.9385C65.3036 92.9385 64.8169 94.8173 64.1034 97.1172C62.8557 101.137 62.4679 103.715 63.1009 103.715C63.5911 103.715 65.7317 98.9206 66.7415 95.5402C67.2575 93.8044 67.9052 91.9097 68.176 91.3217C69.076 89.3992 69.0321 90.5988 68.1064 93.5621C67.6014 95.1589 67.1185 97.5581 67.027 98.8809L66.866 101.304L67.5759 100.426C68.3332 99.4926 69.9944 94.2096 69.9944 92.7557C69.9944 91.7706 70.5689 91.1866 71.0372 91.6872C71.2056 91.87 70.8287 93.3714 70.1554 95.1669C68.8785 98.571 68.5638 100.597 69.4602 99.6078C69.7346 99.3098 70.7153 97.5661 71.6483 95.7309C72.5741 93.8957 73.4705 92.3585 73.6316 92.3069C73.7926 92.2513 74.2023 92.6088 74.5316 93.1053C75.0914 93.9354 75.0914 94.0626 74.5645 95.0596C73.8987 96.3188 74.1254 97.7806 75.1537 98.8968C75.9257 99.7349 75.772 100.358 74.7914 100.358C72.9729 100.358 71.1727 102.543 71.4179 104.438C71.4946 105.018 71.2642 105.65 70.7774 106.17C69.5883 107.461 69.4273 108.839 70.2799 110.531C70.7226 111.405 70.9056 112.16 70.7299 112.402C70.2104 113.125 70.0493 114.488 70.3457 115.616C70.6091 116.605 70.5323 116.78 69.6358 117.276C67.5027 118.472 67.0636 121.63 68.7796 123.389L69.6139 124.232L68.9004 125.284C68.0734 126.492 68.2052 128.593 69.1785 129.769C69.8518 130.575 72.2447 130.71 73.1083 129.987C74.5024 128.823 74.7987 126.956 73.7889 125.566C73.1339 124.665 73.1339 124.653 73.8145 124.196C74.8939 123.465 75.5122 121.483 75.1208 120.009C74.7146 118.464 74.7 118.567 75.2524 118.567C75.5049 118.567 76.4526 117.868 77.3418 117.014C78.8932 115.532 78.9626 115.385 78.8018 113.864L78.6334 112.267L80.5618 111.29C83.1486 109.991 86.8223 108.474 86.9833 108.649C87.3052 108.998 86.6357 111.139 86.2076 111.139C85.3513 111.139 81.6777 113.348 81.3118 114.071C80.5764 115.56 82.4351 115.374 85.5965 113.638C87.2797 112.716 87.3346 112.708 87.7333 113.391C87.9603 113.781 88.1432 114.154 88.1432 114.214C88.1432 114.281 86.7126 115.119 84.9635 116.081C81.535 117.959 79.2372 119.795 79.2372 120.633C79.2372 121.34 79.2993 121.332 81.5643 120.085C83.6536 118.933 87.7992 117.054 87.7992 117.244C87.7992 117.304 87.5798 117.924 87.3127 118.615C86.8992 119.695 86.4088 120.061 83.7597 121.288C80.0896 122.968 77.5247 124.665 77.5247 125.411C77.5247 125.832 78.3956 125.634 81.4582 124.514C85.1684 123.159 85.8965 123.127 85.1319 124.363C84.9928 124.581 83.3462 125.578 81.4728 126.571C77.9089 128.45 75.7647 130.238 74.9231 132.013C74.4951 132.911 74.4951 133.061 74.9085 133.061C75.1756 133.061 75.483 132.804 75.5964 132.485C75.7866 131.958 84.0195 127.354 84.2793 127.628C84.3415 127.695 84.2427 128.168 84.0671 128.676C83.8511 129.312 82.7205 130.226 80.5105 131.548C77.0418 133.633 73.7522 136.481 73.7522 137.412C73.7522 137.777 73.9498 137.896 74.3047 137.745C74.8097 137.531 79.4238 134.349 81.7399 132.613C82.2705 132.212 82.79 131.973 82.8888 132.089C82.9949 132.204 82.79 133.035 82.4461 133.94C81.9155 135.337 81.4436 135.827 79.2701 137.213C77.8614 138.103 75.8927 139.656 74.8756 140.653C73.0424 142.472 71.6923 144.597 72.3764 144.597C72.5741 144.597 74.2718 143.255 76.1636 141.627C80.9459 137.487 81.3337 137.304 79.9434 139.807C77.993 143.345 76.4453 147.239 75.7171 150.412C74.1584 157.264 76.7747 153.372 79.6213 144.589L80.7703 141.057L81.0154 144.216C81.3484 148.553 81.9851 152.431 82.3144 152.2C82.9949 151.751 83.4011 146.849 83.0279 143.576C82.6035 139.763 82.5522 136.891 82.9107 136.649C83.0498 136.549 83.7524 138.591 84.4659 141.177C85.9186 146.424 86.4307 147.731 86.9357 147.513C87.1332 147.429 87.265 145.984 87.2577 144.208C87.2358 141.384 87.0894 140.653 85.8198 137.328C84.8464 134.769 84.4659 133.292 84.6013 132.593C84.7037 132.029 84.9013 131.572 85.0404 131.572C85.4209 131.572 87.9931 137.769 88.864 140.776C89.6837 143.616 90.0496 144.041 90.3862 142.564C90.8546 140.545 89.9434 136.891 87.9858 132.935C86.2003 129.312 85.6294 127.08 86.3759 126.583C86.6467 126.4 89.7752 133.141 91.0594 136.68C91.7546 138.607 92.1388 138.683 92.4316 136.955C92.834 134.639 92.2304 132.319 89.9874 127.497C88.7798 124.911 87.7919 122.468 87.8065 122.063C87.8175 121.554 88.0225 121.745 88.4835 122.71C89.2921 124.363 90.3642 125.244 91.579 125.244C92.4462 125.244 92.4681 125.3 92.3219 127.211C92.1864 128.931 92.2852 129.324 93.0865 130.361C95.6442 133.657 100.233 132.021 100.273 127.787C100.287 126.766 100.463 126.289 100.869 126.142C101.78 125.824 103.189 123.799 103.259 122.694C103.295 122.154 103.423 126.218 103.548 131.739C103.672 137.256 103.968 146.735 104.214 152.812C104.678 164.128 104.444 174.245 103.471 185.157C103.149 188.812 103.163 189.611 103.57 190.143C104.375 191.2 106.193 191.803 109.241 192.037C111.704 192.228 112.103 192.351 111.927 192.852C102.322 220.471 97.8762 231.76 93.2329 240.324C86.0869 253.496 64.5534 284.599 54.8826 295.696C52.541 298.393 52.541 298.704 54.9924 301.619C57.2318 304.276 59.8809 305.663 64.9156 306.791C69.8042 307.895 71.1433 308.547 70.8214 309.707C70.1262 312.193 68.4283 314.068 65.1608 315.955C61.2421 318.223 59.8113 320.639 58.7539 326.767C58.549 327.931 57.6086 331.013 56.6683 333.608C55.7316 336.205 55.029 338.473 55.1278 338.64C55.4278 339.164 57.3159 340.111 57.638 339.896C57.7989 339.784 58.8857 338.024 60.0419 335.975C61.2018 333.929 62.4898 331.82 62.9179 331.288L63.6826 330.315L64.6376 331.677C66.0536 333.691 67.7148 337.901 68.765 342.16C69.8956 346.712 70.4775 347.808 72.5814 349.373C75.4281 351.507 78.6955 352.388 84.3671 352.579C88.0846 352.701 89.5519 352.619 90.1886 352.245C91.1582 351.689 91.4802 350.335 90.8399 349.504C90.6094 349.199 88.4359 347.852 86.01 346.521C83.4011 345.083 81.374 343.713 81.052 343.168C80.3568 342.02 79.2482 332.94 79.2372 328.332C79.2372 326.311 79.453 324.153 79.7751 322.943C80.3788 320.721 82.629 315.812 82.9584 316.003C87.2285 318.505 88.6884 319.029 91.7035 319.176C94.3672 319.304 95.132 319.503 97.1115 320.563C100.328 322.291 102.706 322.76 106.274 322.375C107.873 322.199 112.11 322.044 115.692 322.028C119.27 322.016 122.37 321.969 122.571 321.925C122.776 321.877 123.12 321.428 123.328 320.928C123.709 320.023 123.793 320.007 128.433 319.907L133.145 319.8L133.596 318.779C134.009 317.837 134.199 317.759 136.073 317.759C137.262 317.759 140.046 318.299 142.816 319.061C150.719 321.237 156.597 321.187 163.252 318.863C164.945 318.271 166.377 317.837 166.443 317.897C166.87 318.363 168.357 323.935 168.503 325.616C168.663 327.499 168.54 328.043 167.269 331.045C166.084 333.837 165.853 334.76 165.853 336.721C165.853 338.688 166.04 339.439 167.032 341.397C168.481 344.265 169.147 346.632 169.436 349.953C169.813 354.307 169.78 354.247 171.426 354.108C172.397 354.032 172.894 353.815 172.933 353.441C172.978 353.135 173.102 351.109 173.223 348.948C173.339 346.787 173.581 344.777 173.75 344.488C174.262 343.605 179.213 346.632 182.926 350.096C187.632 354.489 187.205 354.339 194.47 354.271C201.214 354.208 204.581 353.775 206.846 352.695C208.514 351.896 208.781 350.859 207.556 349.929C207.142 349.62 204.463 348.515 201.609 347.479C195.544 345.277 194.878 344.769 191.21 339.503C186.439 332.643 182.077 324.3 180.622 319.244C179.55 315.515 179.55 315.455 180.914 315.065C181.573 314.883 182.221 314.616 182.351 314.469C182.488 314.335 182.29 313.055 181.924 311.625C180.018 304.157 178.459 294.481 176.834 279.844C175.283 265.964 175.198 265.341 173.355 254.263C171.049 240.392 169.161 232.629 165.502 221.992C163.706 216.772 155.48 194.472 153.588 189.709L152.557 187.112L154.156 185.896C157.017 183.716 157.979 182.803 157.979 182.249C157.979 181.944 157.116 179.401 156.054 176.593C154.998 173.781 153.782 169.984 153.351 168.14L152.557 164.792L154.156 164.304C157.598 163.271 158.141 162.949 158.755 161.571C159.092 160.836 159.765 158.163 160.262 155.636C161.814 147.648 161.679 148.069 162.487 148.852C162.865 149.225 164.178 151.167 165.397 153.169C166.619 155.164 167.705 156.8 167.808 156.8C168.202 156.8 170.307 155.239 170.307 154.949C170.307 154.783 169.735 153.916 169.051 153.023C167.423 150.921 163.307 144.041 161.415 140.256C160.6 138.619 159.695 136.871 159.407 136.351C158.141 134.115 161.295 137.888 165.159 143.227C167.379 146.293 169.82 149.551 170.584 150.472L171.975 152.148L173.252 150.785L174.525 149.416L172.682 147.064C171.35 145.372 170.002 143.692 168.642 142.015C167.445 140.529 166.56 139.323 166.688 139.323C166.813 139.323 168.791 140.995 171.074 143.036C173.355 145.081 175.403 146.759 175.613 146.759C176.161 146.759 176.948 145.069 176.706 144.399C176.596 144.093 174.423 142.055 171.861 139.855C169.308 137.653 167.276 135.795 167.354 135.712C167.431 135.628 168.305 135.827 169.304 136.144C170.299 136.467 171.555 136.732 172.092 136.732C172.919 136.732 173.07 136.597 172.978 135.903C172.878 135.195 172.527 135.012 170.474 134.623C167.201 134 166.092 133.619 165.923 133.053C165.81 132.684 166.209 132.645 167.789 132.879C168.891 133.049 170.566 133.193 171.503 133.193H173.216V130.226L170.734 129.88C168.104 129.515 167.368 128.923 169.557 128.923C171.013 128.923 171.679 128.402 171.679 127.246C171.679 126.091 171.035 125.574 169.801 125.574C168.832 125.574 168.708 125.427 168.327 123.898C167.746 121.53 167.782 120.609 168.462 120.891C170.08 121.566 170.538 121.522 170.907 120.668C171.272 119.846 171.295 119.862 171.316 121.042C171.343 122.396 171.861 123.715 172.381 123.715C172.572 123.715 172.718 122.023 172.739 119.727C172.773 114.154 173.256 113.217 173.46 118.349C173.622 122.543 173.911 123.882 174.448 122.937C174.603 122.663 174.837 121.391 174.961 120.108C175.198 117.685 175.517 117.252 176.14 118.516C176.421 119.08 176.3 120.017 175.641 122.488C174.694 126.031 174.486 129.09 175.198 128.839C175.67 128.676 177.431 123.334 177.493 121.856L177.533 120.931L178.174 121.757C178.795 122.571 178.795 122.659 178.174 125.292C177.814 126.774 177.522 129.066 177.522 130.392C177.522 132.501 177.577 132.728 178.02 132.248C178.532 131.691 179.568 127.036 179.568 125.276C179.568 124.295 179.568 124.295 180.241 125.026C180.809 125.65 180.866 125.983 180.599 127.246C180.004 130.079 179.82 135.345 180.248 137.081C180.845 139.489 181.174 138.484 181.671 132.684C182.077 127.993 182.121 127.811 182.604 128.808C183.033 129.689 183.047 130.385 182.718 133.252C182.429 135.712 182.422 137.256 182.689 138.825C183.081 141.169 184.616 145.272 185.1 145.272C185.488 145.272 185.474 139.556 185.081 137.745C184.921 136.975 184.83 136.351 184.885 136.351C184.94 136.351 185.726 137.789 186.63 139.54C188.74 143.62 192.444 147.465 191.708 144.808C191.463 143.903 189.191 139.259 187.892 136.999C187.449 136.232 187.171 135.604 187.269 135.604C187.365 135.604 188.236 136.208 189.183 136.931C192.499 139.457 196 141.543 196 140.987C196 140.089 193.981 137.912 191.862 136.509C190.745 135.783 189.835 135.12 189.835 135.052C189.835 134.98 191.068 135.493 192.576 136.176C195.506 137.515 195.993 137.396 194.203 135.767C192.912 134.587 190.83 133.543 187.976 132.653C186.751 132.264 185.755 131.707 185.466 131.223C185.024 130.504 185.419 130.595 189.285 132.081C191.664 132.987 193.6 133.595 193.6 133.428C193.6 132.501 190.164 130.504 186.582 129.34C185.1 128.859 184.021 128.275 183.754 127.818C183.11 126.69 183.202 126.655 184.84 127.413C186.575 128.22 191.726 130.027 192.298 130.027C192.864 130.027 191.525 128.549 190.348 127.878C189.78 127.552 187.709 126.69 185.754 125.96C183.341 125.062 182.03 124.371 181.694 123.807L181.196 122.976L183.713 123.914C186.918 125.109 190.2 125.952 190.592 125.685C191.518 125.07 187.424 122.452 183.998 121.479C179.919 120.311 178.839 119.87 178.532 119.246C178.206 118.599 178.305 118.599 180.845 119.29C182.297 119.687 184.456 120.351 185.634 120.768C188.426 121.757 189.023 121.483 187.057 120.12C185.606 119.115 183.405 118.273 178.488 116.831C177.141 116.438 176.384 115.981 175.978 115.302C175.656 114.77 175.451 114.277 175.521 114.198C175.594 114.122 177.324 114.647 179.366 115.374C181.404 116.088 183.553 116.629 184.141 116.565L185.207 116.454L184.007 115.624C183.348 115.167 180.998 114.162 178.792 113.391C175.36 112.204 174.01 111.381 174.518 110.825C174.584 110.758 175.741 111.032 177.094 111.437C178.441 111.846 180.471 112.176 181.61 112.176C183.332 112.176 183.662 112.069 183.669 111.528C183.669 111.171 183.797 110.658 183.952 110.408C184.112 110.134 184.219 110.706 184.203 111.779C184.182 113.332 184.335 113.804 185.191 114.77C185.747 115.401 186.673 116.049 187.241 116.208C188.111 116.454 188.313 116.736 188.496 117.944C188.74 119.58 189.812 120.732 191.097 120.732C191.602 120.732 192.337 121.189 192.905 121.848C193.676 122.742 194.157 122.96 195.291 122.96C199.148 122.96 199.583 117.471 195.825 116.232C195.192 116.017 195.206 115.973 196.033 115.608C197.351 115.028 198.39 113.399 198.39 111.93C198.39 109.51 196.699 107.354 194.807 107.354C193.761 107.354 193.735 107.187 194.618 106.162C195.312 105.348 197.013 100.049 197.022 98.6545C197.029 97.5978 197.54 96.7954 198.005 97.1093C198.251 97.2761 198.382 96.9702 198.382 96.2473C198.382 95.3218 197.807 94.5512 194.778 91.4846C191.55 88.2194 189.132 84.9384 189.59 84.434C189.682 84.3346 191.938 86.6266 194.602 89.5264C198.076 93.3118 199.392 94.9762 199.239 95.4052C198.763 96.7518 197.983 104.327 198.115 106.329C198.382 110.361 199.729 110.011 200.387 105.741C201.643 97.7012 201.488 98.3049 202.056 99.1709C202.521 99.8858 202.492 100.398 201.803 104.227C201.229 107.393 201.098 109.03 201.28 110.615C201.42 111.787 201.552 113.034 201.573 113.391C201.625 114.098 201.994 114.253 202.316 113.689C202.43 113.491 202.729 113.423 202.996 113.538C203.377 113.689 203.472 113.276 203.454 111.572C203.439 110.376 203.732 107.918 204.105 106.098L204.778 102.797L206.322 105.506L205.459 109.495C204.259 115.036 204.091 116.649 204.533 118.44C205.008 120.367 205.43 120.418 205.683 118.599C206.684 111.497 207.029 109.435 207.409 108.263L207.841 106.897L208.411 107.834C208.942 108.712 208.928 109.046 208.306 112.99C207.61 117.38 207.421 122.778 207.939 123.668C208.327 124.339 208.404 124.065 209.828 116.954C210.9 111.572 210.991 111.322 211.419 112.311C211.796 113.185 211.782 113.864 211.292 116.621C210.439 121.463 210.578 127.672 211.529 127.33C212.015 127.155 212.66 124.43 213.187 120.291C213.41 118.508 213.725 117.177 213.874 117.336C214.022 117.495 214.442 119.314 214.8 121.38C215.576 125.801 216.018 127.668 216.93 130.309C217.977 133.336 218.36 132.812 218.153 128.641C217.984 125.221 217.38 122.742 215.283 116.839C214.994 116.041 216.202 116.962 219.952 120.402C220.984 121.356 222.184 122.329 222.605 122.567C223.264 122.933 223.374 122.901 223.374 122.345C223.374 121.364 217.64 115.409 215.635 114.313C214.182 113.514 212.758 112.021 212.758 111.298C212.758 110.988 219.232 114.023 220.655 114.992C222.261 116.096 222.352 116.1 222.352 115.211C222.352 113.439 217.489 110.186 213.051 108.998C211.285 108.529 210.61 108.14 210.028 107.294C209.615 106.686 209.348 106.122 209.428 106.039C209.693 105.749 214.955 106.897 217.035 107.699C218.16 108.132 219.378 108.482 219.743 108.482C220.388 108.482 220.388 108.458 219.777 107.727C218.675 106.412 215.101 104.827 211.397 104.013C207.863 103.246 206.264 102.535 206.264 101.745C206.264 101.22 209.693 101.638 213.08 102.575C215.73 103.306 216.216 103.274 215.543 102.392C214.855 101.495 211.803 100.275 207.841 99.3178C204.741 98.571 203.845 98.1977 203.026 97.3158C202.469 96.72 202.086 96.1638 202.17 96.0884C202.254 96.0129 204.02 96.4101 206.089 96.9861C210.457 98.1977 213.11 98.3884 213.11 97.4985C213.11 97.1609 212.359 96.5452 211.313 96.0288C209.462 95.1152 201.525 92.5094 200.501 92.4896C200.186 92.4817 199.545 92.2353 199.07 91.9493C198.222 91.421 198.222 91.4132 199.583 91.4052C200.332 91.4052 202.645 91.8262 204.716 92.3505C210.585 93.8361 211.068 93.86 212.309 92.724C213.614 91.5362 213.783 91.5204 213.783 92.6405C213.783 93.7606 214.877 95.2582 216.166 95.8461C217.12 96.2712 217.183 96.4181 216.992 97.6932C216.593 100.406 218.404 102.535 221.098 102.535C222.295 102.535 222.836 102.309 223.677 101.455C224.259 100.863 224.742 100.092 224.742 99.7429C224.742 99.2861 224.902 99.1868 225.338 99.3853C225.668 99.5364 226.279 99.7349 226.685 99.8342C227.336 99.9852 227.391 100.14 227.099 100.97C226.907 101.495 226.861 102.384 226.971 102.956C227.238 104.271 229.302 106.253 230.41 106.253C231.193 106.253 231.244 106.357 231.061 107.644C230.696 110.325 233.191 112.867 235.668 112.335C236.678 112.112 238.43 110.583 238.43 109.92C238.43 109.387 239.462 109.562 239.664 110.126C239.769 110.416 239.608 111.163 239.309 111.779C237.801 114.937 239.722 118.134 242.854 117.685C244.117 117.503 244.208 117.542 243.9 118.166C243.711 118.539 243.565 119.179 243.565 119.588C243.565 120.617 245.093 122.48 246.188 122.778C249.082 123.572 251.284 119.429 249.188 117.153C248.464 116.371 248.361 116.041 248.64 115.401C249.327 113.832 249.379 113.256 248.914 112.045C248.361 110.623 247.183 109.602 246.067 109.602H245.294L245.976 108.39C247.545 105.582 246.005 102.559 242.983 102.543H241.53L242.096 101.248C243.549 97.9553 240.007 94.142 237.069 95.8461C236.542 96.148 236.25 95.9732 235.408 94.8689C234.359 93.4866 233.823 92.1321 234.336 92.1321C234.489 92.1321 234.72 92.4578 234.833 92.863C235.162 93.995 236.699 95.0993 237.94 95.0993C238.654 95.0993 239.455 94.7498 240.121 94.1341C240.988 93.3317 241.17 92.8988 241.17 91.584C241.17 89.4905 240.183 88.1122 238.467 87.8142C237.329 87.6157 237.176 87.4726 237.176 86.5432C237.176 84.1281 235.112 82.3802 233.173 83.139C231.665 83.7348 230.823 83.6872 230.03 82.988C229.371 82.4081 229.371 82.4001 230.051 82.6584C231.613 83.2541 231.994 83.2701 232.982 82.8292C234.833 81.9989 235.613 79.0833 234.46 77.2998C233.656 76.0446 231.852 75.3137 230.732 75.7705C229.601 76.2353 229.539 76.2353 229.539 75.7109C229.539 75.4646 229.286 74.9721 228.987 74.6066C228.675 74.2412 228.401 73.2441 228.36 72.3822C228.23 69.4666 225.507 67.8777 223.037 69.264C221.917 69.8956 221.438 69.4904 221.994 68.3624C223.431 65.4466 221.01 61.7565 217.886 62.0742C216.7 62.1974 216.622 62.1537 216.944 61.4984C217.142 61.101 217.227 59.973 217.135 58.976C216.951 56.8985 217.38 56.6244 218.061 58.392C218.789 60.2709 219.813 61.0773 221.497 61.0773C223.18 61.0773 224.097 60.3622 224.72 58.7257C224.932 58.1776 225.568 57.4386 226.15 57.0733C227.167 56.4496 227.231 56.4496 228.072 57.1725C230.604 59.3334 233.955 56.2589 232.47 53.1368C231.558 51.2221 229.469 50.6105 227.897 51.8061C227.252 52.3026 227.135 52.3026 227.135 51.8537C227.135 51.5558 226.517 50.7097 225.767 49.9709C224.04 48.2748 222.224 48.1158 220.899 49.5538L220.051 50.4754L219.66 49.53C218.627 47.0712 214.734 47.254 213.762 49.812C213.495 50.5112 213.172 50.8249 212.857 50.6938C212.583 50.5826 212.293 50.4913 212.218 50.4913C212.14 50.4913 212.071 49.9709 212.071 49.3314C212.071 47.6512 210.158 45.657 208.529 45.657C206.728 45.657 205.649 46.3482 204.976 47.9332C204.481 49.0812 204.244 49.2957 203.692 49.089C203.311 48.9501 202.254 48.8746 201.335 48.9302C199.919 49.0136 199.7 48.9381 199.882 48.4257C200.003 48.1 200.095 47.2022 200.095 46.4396C200.095 45.1169 200.156 45.0374 201.543 44.7037C202.627 44.4456 203.179 44.0484 203.685 43.1585C204.091 42.4594 204.665 41.955 205.071 41.947C205.459 41.939 206.073 41.6968 206.44 41.4068C207.022 40.9421 207.182 40.958 207.724 41.4822C208.06 41.812 208.872 42.0861 209.524 42.0861C212.118 42.0861 213.212 38.6977 211.221 36.8268C210.409 36.0721 209.974 35.933 208.767 36.088C207.662 36.223 207.168 36.1078 206.755 35.6073C205.416 33.9946 202.294 34.7097 201.924 36.7117C201.643 38.225 200.487 38.3244 200.676 36.8189C200.859 35.3492 199.675 33.4742 198.306 33.081C196.308 32.4932 194.434 33.7205 194.064 35.8417C193.655 38.225 192.1 36.9778 192.052 34.2369C192.023 32.8824 191.833 32.3858 191.068 31.6629C189.758 30.4394 188.389 30.5229 186.933 31.9132C185.909 32.8904 185.634 32.9976 185.006 32.6321C183.622 31.8218 180.907 33.3552 180.907 34.9361C180.907 35.7424 180.928 35.7424 179.589 35.1346L178.539 34.6461L179.55 33.6133C180.83 32.3025 180.892 30.7334 179.717 29.4624C178.777 28.4454 177.116 28.2468 176.475 29.069C176.176 29.4624 175.857 29.4941 175.15 29.2041C173.875 28.6877 171.87 29.6292 171.013 31.1625L170.354 32.3342L170.109 31.0909C169.977 30.4077 169.568 29.4028 169.22 28.8625C168.221 27.3332 168.378 26.6937 169.751 26.6937C171.309 26.6937 172.933 25.2001 173.23 23.512C173.439 22.2845 173.508 22.2329 174.99 22.2329C176.279 22.2329 176.713 22.0264 177.691 20.9697C178.419 20.1753 178.854 19.3372 178.854 18.7294C178.854 17.8158 178.923 17.7721 180.171 17.9905C181.057 18.1454 181.825 18.0302 182.52 17.641C183.53 17.0769 184.673 15.0908 184.673 13.9032C184.673 13.5774 184.822 13.3113 185.006 13.3113C185.184 13.3113 185.85 12.8148 186.491 12.207C187.464 11.2775 187.844 11.1385 188.879 11.3212C189.949 11.5039 190.263 11.3847 191.16 10.4076C192.549 8.90209 192.568 7.31719 191.203 5.84747C190.025 4.57237 188.558 4.41745 187.372 5.46216C186.728 6.03019 186.201 6.12949 184.609 5.9706C182.759 5.78788 182.575 5.84349 181.687 6.88421C180.46 8.30627 179.139 8.66773 177.837 7.93685C176.161 6.9994 174.822 7.21391 173.508 8.63596C172.689 9.52573 172.345 10.2328 172.345 11.0471C172.345 12.1673 172.304 12.207 170.775 12.207C169.443 12.207 169.023 12.3977 168.034 13.4701C167.395 14.1693 166.87 15.1068 166.87 15.5556C166.87 16.1952 166.736 16.3104 166.275 16.1037C165.944 15.9528 165.326 15.7462 164.906 15.6469C164.485 15.5477 164.133 15.1981 164.133 14.8565C164.133 14.5109 163.91 13.788 163.643 13.2278L163.153 12.207H164.69C166.658 12.207 167.906 11.0034 167.906 9.10071C167.906 7.19801 167.628 6.6856 166.469 6.03813C165.151 5.29929 163.673 5.66076 162.747 6.93983C162.192 7.70647 162.059 8.33804 162.144 9.78393L162.256 11.6509L160.789 11.5277C159.491 11.4205 159.176 11.5675 158.089 12.7472C156.941 13.9945 156.871 14.209 157.024 15.913C157.116 16.9181 157.094 17.7324 156.98 17.7165C155.803 17.5734 154.715 17.9628 153.782 18.8684C152.772 19.8496 152.669 20.1514 152.662 22.0264C152.662 23.6708 152.502 24.2626 151.891 24.9261L151.127 25.7562V24.6281C151.127 23.8377 150.782 23.1465 149.955 22.2766L148.784 21.0532L149.252 19.3689C149.856 17.2001 149.578 15.778 148.324 14.6261C146.212 12.6996 142.991 13.9508 142.334 16.9578C141.935 18.7969 141.125 18.9121 140.222 17.2517L139.508 15.9369L140.222 14.6261C141.225 12.775 140.874 9.7164 139.458 7.96465C138.912 7.28937 138.455 6.48301 138.455 6.17716C138.455 5.87129 138.14 5.19601 137.76 4.65976C136.014 2.24863 131.956 3.61904 131.956 6.61807C131.956 7.54757 131.821 7.56347 130.544 6.74916C129.863 6.31221 129.618 5.92691 129.776 5.53763C129.9 5.22383 130.076 4.43335 130.16 3.76204C130.284 2.76501 130.112 2.33999 129.113 1.25955C127.803 -0.15854 126.863 -0.349206 125.37 0.536601M110.189 18.5625C110.306 18.7692 110.471 18.936 110.555 18.936C110.639 18.936 110.701 18.7692 110.701 18.5625C110.701 18.356 110.54 18.1892 110.335 18.1892C110.134 18.1892 110.068 18.356 110.189 18.5625ZM153.965 29.363C150.258 31.945 153.007 37.3114 156.911 35.1188C157.99 34.511 158.817 32.4414 158.47 31.23C158.196 30.2925 156.358 28.6044 155.616 28.6122C155.297 28.6122 154.555 28.9538 153.965 29.363ZM135.791 37.8238C134.843 37.9748 133.643 39.5796 133.643 40.6838C133.643 41.8874 134.858 43.381 136.065 43.667C137.416 43.9888 138.927 43.3016 139.417 42.1297C139.977 40.7912 139.907 40.3105 138.952 39.087C138.089 37.9669 137.159 37.6014 135.791 37.8238ZM148.814 39.4604C147.774 40.0006 146.9 42.1297 147.163 43.4644C147.767 46.4317 151.203 47.5121 153.189 45.3592C154.254 44.2033 154.537 42.2688 153.834 40.8506C153.068 39.2976 150.482 38.5825 148.814 39.4604ZM188.678 44.0404C187.087 45.2201 186.769 46.4078 187.64 48.0166C188.544 49.6889 189.835 50.1377 191.306 49.2718C193.315 48.1 193.824 45.5777 192.382 44.0126C191.306 42.8448 190.284 42.8526 188.678 44.0404ZM120.456 45.3114C120.566 45.5101 120.881 45.5737 121.162 45.4585C121.872 45.1605 121.788 44.954 120.961 44.954C120.573 44.954 120.343 45.1169 120.46 45.3114M155.634 45.7008C153.951 46.813 153.614 47.9252 154.339 49.955C155.082 52.0564 156.296 53.1328 157.913 53.1328C158.923 53.1249 160.837 52.4138 159.893 52.402C159.733 52.402 160.002 51.8816 160.49 51.25C160.972 50.6184 161.371 49.7802 161.371 49.379C161.371 47.8696 160.431 46.2053 159.227 45.5777C157.662 44.7713 156.996 44.7952 155.63 45.7008M178.419 46.0424C177.438 47.0037 177.303 47.3532 177.303 49.0136C177.303 51.6393 178.396 52.8269 181.042 53.0613C182.857 53.2241 182.996 53.1765 184.189 51.8736C185.382 50.5746 185.426 50.4 185.257 48.7753C185.006 46.2966 183.592 44.962 181.243 44.962C179.849 44.962 179.345 45.1605 178.426 46.0504M169.03 46.7892C167.493 47.81 166.966 49.7048 167.73 51.4645C168.763 53.824 170.424 54.4476 172.831 53.3513C174.163 52.7514 174.73 51.8061 174.73 50.2013C174.73 46.7972 171.722 45.0017 169.03 46.7812M128.66 47.3612C127.024 49.1328 127.796 52.0444 130.083 52.7277C132.256 53.383 133.98 51.953 133.98 49.5061C133.98 47.7186 132.706 46.4476 130.903 46.4476C129.871 46.4476 129.274 46.682 128.66 47.3612ZM136.128 49.6213C135.714 49.9352 135.202 50.8249 134.982 51.5996C133.969 55.2857 138.21 58.0186 140.902 55.4009C143.322 53.0533 141.707 49.0414 138.338 49.0414C137.529 49.0414 136.541 49.3036 136.128 49.6134M176.231 53.8677C175.832 54.0464 175.18 54.6382 174.778 55.1944C172.634 58.1537 175.594 62.547 178.964 61.4228L180.095 61.0494L179.94 62.7933C179.801 64.4218 179.886 64.6404 181.142 66.0782C182.319 67.4209 182.689 67.6234 183.952 67.6234C185.214 67.6234 185.613 67.405 186.567 66.3604C187.54 65.3117 187.731 64.823 187.731 63.4685C187.731 61.5062 187.018 60.2948 185.444 59.5797C184.258 59.0474 182.084 59.2064 181.715 59.8617C181.61 60.0445 181.379 60.1874 181.181 60.1874C180.984 60.1874 181.076 59.8141 181.379 59.3652C183.341 56.3225 179.637 52.3701 176.224 53.8677M151.448 54.8806C149.74 55.5678 148.853 57.4944 149.41 59.3136C150.53 62.9958 155.461 62.9521 156.099 59.2421C156.611 56.2589 154.042 53.8478 151.448 54.8806ZM191.137 56.4576C189.996 57.6969 189.835 59.2301 190.654 60.9581C191.306 62.3205 192.136 62.8052 193.797 62.7972C196.919 62.7773 198.496 58.817 196.329 56.4654C195.506 55.5757 195.038 55.3772 193.735 55.3772C192.429 55.3772 191.961 55.5757 191.137 56.4654M97.2725 57.0573C96.1016 57.7525 95.6368 58.682 95.6368 60.3345C95.6368 61.9829 96.9614 63.7665 98.3519 64.0921C100.342 64.5728 102.834 62.5112 102.834 60.3781C102.834 59.1825 101.733 57.5141 100.595 57.0057C99.1422 56.3504 98.4654 56.3582 97.2798 57.0573M127.383 57.2361C126.38 58.0861 125.615 60.2193 125.93 61.2758C126.611 63.5996 128.905 64.8152 130.91 63.9094C132.033 63.4089 133.307 61.4745 133.307 60.2629C133.307 57.2718 129.578 55.3612 127.39 57.2361M106.332 58.1854C105.384 58.9998 105.216 59.3732 105.216 60.7674C105.216 63.1785 106.358 64.4814 108.469 64.4814C109.801 64.4814 110.211 64.3066 110.895 63.4368C111.78 62.3205 111.996 60.3384 111.367 59.0753C110.939 58.1934 109.292 57.2361 108.224 57.2401C107.796 57.2401 106.943 57.677 106.325 58.2013M164.884 57.9432C164.272 58.3602 163.775 58.7496 163.775 58.8012C163.775 58.8568 163.636 59.4328 163.46 60.0802C163.223 60.9938 163.3 61.5897 163.827 62.7377C165.038 65.403 167.997 65.7605 169.78 63.4526C172.338 60.1557 168.305 55.6114 164.884 57.9432ZM137.88 57.959C135.722 58.9005 134.913 62.7297 136.512 64.4576C138.111 66.1856 140.91 66.0425 142.373 64.2749C143.121 63.3852 143.413 60.8945 142.908 59.8538C142.037 58.0941 139.64 57.1805 137.888 57.959M205.767 62.0822C205.268 62.5112 204.862 63.103 204.862 63.4169C204.862 63.834 204.588 63.7268 203.805 63.0197C202.184 61.5341 200.017 61.6572 198.489 63.3256C197.57 64.3225 197.325 64.8866 197.325 66.0186C197.325 67.679 198.427 69.8638 199.392 70.1378C199.766 70.2452 200.058 70.4557 200.058 70.6106C200.058 70.7616 199.759 70.984 199.392 71.0873C198.327 71.3932 197.259 73.5698 197.456 75.0237C198.017 79.0833 202.66 80.5133 204.526 77.1925C205.591 75.2978 205.416 73.3792 204.036 71.8817C203.388 71.1865 202.583 70.6106 202.239 70.6026C201.778 70.5946 201.887 70.4278 202.631 70.0068C203.201 69.689 203.992 69.0098 204.398 68.4934C205.092 67.5957 205.17 67.5798 205.927 68.1518C208.178 69.8638 211.705 67.9452 211.705 65.0058C211.705 63.9492 210.786 62.1577 210.01 61.7088C208.895 61.0653 206.743 61.26 205.758 62.0981M113.219 63.2858C112.048 64.4497 111.898 64.7953 111.898 66.3405C111.898 67.7705 112.062 68.2273 112.838 68.9502C114.81 70.7933 117.705 70.4437 118.952 68.2193C120.482 65.4944 119.095 62.7694 115.897 62.2133C114.675 61.9988 114.404 62.1061 113.219 63.2858ZM146.127 63.2778C145.468 63.8936 145.165 64.5966 145.041 65.8201C144.822 67.9452 145.327 69.0177 146.893 69.7248C150.01 71.1429 153.061 67.969 151.784 64.6324C150.951 62.4397 147.822 61.6969 146.134 63.2778M155.304 63.3414C153.812 64.0564 152.74 65.9869 153.032 67.4408C153.659 70.6026 156.373 71.9094 158.862 70.261C162.593 67.7942 159.318 61.4228 155.304 63.3414ZM132.242 66.0664C130.903 67.3573 130.482 70.0386 131.371 71.5242C133.42 74.9125 138.433 73.4706 138.433 69.4984C138.433 67.4566 138.001 66.6741 136.38 65.7764C134.558 64.7634 133.504 64.8389 132.242 66.0664ZM104.62 66.1418C103.226 67.0634 102.307 69.0416 102.629 70.4278C102.761 70.984 103.325 71.9413 103.892 72.557C104.825 73.5698 105.07 73.6533 106.676 73.4865C108.941 73.2521 110.02 72.0485 110.02 69.7406C110.02 67.9373 109.377 66.7496 107.957 65.9592C106.647 65.2202 105.959 65.256 104.62 66.1418ZM190.699 65.9592C190.585 66.2689 190.293 66.5152 190.04 66.5152C189.787 66.5152 189.217 66.9244 188.785 67.4288C187.28 69.1646 188.382 72.7556 190.745 73.8281C192.207 74.4834 194.072 74.0664 195.086 72.8469C196.033 71.7149 196.132 69.1726 195.284 67.695C194.212 65.836 191.144 64.6801 190.699 65.9512M120.397 69.84C119.073 70.4557 118.026 73.4269 118.63 74.8569C118.835 75.3376 119.838 76.1836 120.862 76.7437C122.684 77.7486 122.754 77.7566 123.917 77.1568C126.164 75.9929 126.709 72.4457 124.92 70.6185C123.994 69.681 121.62 69.268 120.39 69.84M208.591 70.7098C206.7 72.0922 206.377 75.0078 207.925 76.8232C210.044 79.282 214.09 78.0784 214.65 74.8132C215.29 71.119 211.526 68.5689 208.587 70.7098M90.0496 70.992C89.5373 71.4249 89.0616 72.2988 88.9336 73.0376C88.2456 77.0098 92.406 79.1746 94.7953 76.0922C97.3639 72.7794 93.1964 68.3028 90.0496 70.992ZM98.8276 73.0058C97.686 73.5461 96.6687 75.2224 96.6687 76.549C96.6687 76.9741 96.892 77.9116 97.1664 78.6186C98.2531 81.4428 102.062 81.558 103.756 78.8172C104.748 77.2244 104.748 76.0009 103.771 74.4398C102.593 72.5729 100.833 72.0565 98.8276 73.0018M112.055 73.0138C110.643 73.844 109.823 75.8618 110.211 77.5222C111.038 81.0694 115.919 81.4349 117.207 78.0545C117.95 76.1041 117.06 74.0902 114.92 72.8866C113.947 72.3465 113.134 72.3742 112.055 73.0138ZM80.7226 74.4914C78.9957 76.3664 80.0055 79.981 82.3838 80.4697C84.6782 80.9304 86.5515 79.1668 86.4856 76.6166C86.4382 74.7337 85.1465 73.5858 83.1011 73.5858C81.9228 73.5858 81.3667 73.8002 80.7226 74.4994M165.999 74.4756C164.233 76.3941 164.715 79.3336 166.988 80.5054C168.371 81.2204 169.52 81.002 170.866 79.7388C171.66 78.992 171.822 78.5432 171.822 77.1012C171.822 75.6633 171.66 75.2144 170.859 74.4676C169.512 73.2124 167.149 73.2124 165.999 74.4676M152.096 74.5073C150.046 75.7109 149.925 79.3494 151.891 80.6564C154.072 82.1062 156.633 81.2442 157.292 78.837C157.614 77.6573 157.591 77.2164 157.131 76.2432C156.154 74.2014 153.926 73.4269 152.096 74.5073ZM137.836 75.3057C136.161 76.5014 135.722 77.9234 136.38 80.0724C137.339 83.2304 141.561 83.7506 143.376 80.9304C144.262 79.56 144.063 77.125 142.97 75.7864C141.598 74.1101 139.754 73.9353 137.836 75.2978M174.507 77.6454C172.59 78.5352 172.1 81.3277 173.537 83.1866C175.718 86.0029 179.52 84.4101 179.52 80.6722C179.52 78.3365 176.695 76.6245 174.507 77.6454ZM215.094 77.848C214.029 78.4796 213.263 80.279 213.545 81.5024C213.867 82.8966 215.053 84.283 216.147 84.5412C218.061 84.998 220.603 82.8966 220.603 80.8629C220.603 78.1538 217.478 76.4497 215.094 77.856M91.3192 79.5164C89.153 80.4697 88.4213 83.854 90.0129 85.5818C91.2681 86.9444 92.6365 87.1826 94.1916 86.3048C96.7931 84.847 96.7091 80.8629 94.0525 79.6673C92.7829 79.0913 92.3548 79.0674 91.3265 79.5164M74.5499 80.9701C71.5787 82.9404 72.7058 87.707 76.1489 87.707C79.7678 87.707 80.913 82.5312 77.6638 80.8549C76.2148 80.1081 75.8416 80.1241 74.5499 80.9701ZM82.0473 82.4637C80.7153 83.3693 80.2324 84.2989 80.2324 85.9274C80.2324 87.4329 80.8763 88.5054 82.4132 89.5342C83.7816 90.4558 84.7037 90.5074 86.0648 89.7488C87.2943 89.0536 88.1067 87.4409 88.1067 85.6892C88.1067 82.6544 84.5573 80.7557 82.0473 82.4717M128.616 82.1578C126.036 82.988 125.187 86.7617 127.108 88.851C127.917 89.7249 128.407 89.9394 129.633 89.9394C132.388 89.9394 134.108 87.5164 133.336 84.716C132.725 82.4914 130.811 81.4666 128.616 82.1658M154.149 82.6662C153.047 83.3456 152.359 85.0337 152.669 86.3445C153 87.7745 154.697 89.1926 156.07 89.1926C157.829 89.1926 159.322 87.6474 159.322 85.8361C159.322 83.0238 156.442 81.2601 154.149 82.6662ZM118.392 84.5332C117.397 85.6057 117.265 87.6316 118.092 89.002C118.659 89.9473 120.712 90.8968 121.309 90.4994C121.528 90.3565 121.653 90.9524 121.653 92.1162C121.653 93.721 121.795 94.0864 122.714 94.9245C124.093 96.1877 125.721 96.1957 127.082 94.9484C127.65 94.428 128.209 93.5224 128.33 92.9305C128.769 90.7298 126.504 88.14 124.598 88.6604C123.8 88.8788 123.778 88.8272 123.954 87.3893C124.115 86.0705 124.009 85.7448 123.098 84.7557C121.722 83.2621 119.655 83.1628 118.392 84.5332ZM108.773 85.6454C107.368 86.3009 106.592 87.564 106.592 89.1926C106.592 90.8213 107.291 91.9613 108.652 92.724C109.907 93.431 110.818 93.423 112.088 92.716C113.167 92.1082 114.13 90.4478 114.13 89.1926C114.13 86.4876 111.177 84.5332 108.78 85.6454M170.72 86.1301C168.631 87.8977 169.206 91.4528 171.756 92.4976C172.915 92.9662 173.193 92.9584 174.247 92.4101C177.639 90.6544 176.622 85.4628 172.887 85.4826C172.085 85.4905 171.156 85.7725 170.72 86.1301ZM179.352 88.5889C176.131 90.15 176.154 94.6346 179.399 96.1122C182.725 97.6177 185.656 94.3089 184.335 90.5392C183.706 88.7278 181.144 87.7309 179.359 88.5968M195.957 88.4061C196.246 88.5809 197.625 88.8193 199.041 88.9464C200.457 89.0694 202.729 89.4826 204.091 89.86C206.433 90.5074 206.575 90.5074 206.575 89.8997C206.575 89.5501 206.67 88.9861 206.784 88.6684C206.974 88.14 206.34 88.0804 201.221 88.0884C197.946 88.0964 195.667 88.2313 195.964 88.4061M101.283 89.2442C99.5228 90.2969 99.2008 92.5333 100.58 94.154C102.285 96.148 105.904 94.9245 105.904 92.3426C105.904 91.1192 105.07 89.3436 104.345 89.0457C103.504 88.6961 102.047 88.7954 101.276 89.2442M136.794 90.1221C134.477 91.2105 134.192 94.8332 136.281 96.6128C137.902 97.999 140.797 97.3754 141.716 95.4489C142.549 93.6972 142.341 92.2274 141.041 90.8213C139.747 89.4112 138.667 89.2364 136.801 90.1221M154.386 90.9205C154.065 91.8421 154.423 91.9692 154.859 91.0874C155.066 90.6624 155.096 90.3128 154.92 90.3128C154.745 90.3128 154.507 90.5869 154.379 90.9205M191.365 92.4896C191.217 92.7398 191.281 93.423 191.504 94.0109C191.785 94.7418 191.803 95.2821 191.559 95.7706C191.105 96.6922 191.42 97.145 192.85 97.6813C193.494 97.9157 194.31 98.3884 194.654 98.73C195.243 99.3098 195.275 99.2622 195.275 97.8164C195.275 96.4857 195.045 96.0209 193.454 94.1618C192.191 92.6921 191.548 92.1758 191.372 92.4976M158.173 94.6425C157.226 96.2194 156.672 98.1142 157.171 98.1142C157.577 98.1142 159.512 93.7289 159.238 93.431C159.129 93.3118 158.645 93.8521 158.173 94.6346M117.931 95.29C117.02 95.8381 116.212 97.2086 116.19 98.2294C116.182 98.5949 116.402 99.3616 116.676 99.9414C117.847 102.408 121.568 102.293 122.545 99.7666C123.175 98.1381 122.875 96.8749 121.59 95.6992C120.474 94.6822 119.186 94.5353 117.931 95.29ZM105.868 95.5324C104.719 96.0129 103.687 98.0586 103.968 99.294C105 103.747 110.664 103.314 110.694 98.7776C110.708 96.1798 108.261 94.5273 105.868 95.5244M174.737 95.6157C172.942 96.6048 172.479 99.4172 173.852 100.915C174.837 101.979 176.575 102.134 177.723 101.248C178.459 100.696 178.473 100.7 178.273 101.804C177.83 104.204 179.534 106.289 181.917 106.289C183.348 106.289 184.196 105.749 184.822 104.438C185.649 102.71 185.473 101.522 184.174 100.124C182.942 98.7856 181.229 98.432 179.842 99.2424C179.267 99.576 179.176 99.5005 179.176 98.6545C179.176 97.292 178.635 96.3466 177.472 95.6912C176.268 95.016 175.839 95 174.73 95.6078M96.6395 96.6008C94.0233 99.429 96.7894 103.981 100.189 102.444C101.543 101.836 102.49 100.557 102.49 99.3457C102.49 96.005 98.7946 94.2612 96.6468 96.6008M162.144 97.8322C161.51 98.6942 160.347 101.419 160.347 102.051C160.347 102.567 160.431 102.591 160.888 102.178C161.462 101.661 163.091 98.3962 163.091 97.7568C163.091 97.2324 162.564 97.2681 162.151 97.8322M136.991 99.0636C136.479 99.3694 135.897 99.9336 135.707 100.331C134.584 102.599 136.227 105.55 138.609 105.55C141.876 105.55 143.055 100.68 140.181 99.0636C138.919 98.3565 138.195 98.3565 136.991 99.0636ZM127.437 99.7905C126.135 100.557 125.593 102.194 126.098 103.854C126.618 105.55 127.613 106.289 129.388 106.289C131.386 106.289 132.615 105.01 132.615 102.932C132.615 99.9852 129.9 98.3328 127.437 99.7826M152.473 101.852C152.473 102.067 152.626 102.142 152.817 102.011C153.007 101.884 153.153 101.705 153.153 101.614C153.153 101.522 153 101.447 152.817 101.447C152.633 101.447 152.473 101.622 152.473 101.844M166.779 103.23C165.495 105.348 164.745 107.044 164.891 107.516C165.052 108.033 167.379 104.668 167.851 103.23C168.364 101.677 167.723 101.677 166.779 103.23ZM102.238 103.306C100.405 104.517 100.317 107.004 102.033 108.74C104.005 110.722 107.28 109.086 107.28 106.106C107.28 105.101 107.02 104.47 106.274 103.663C105.092 102.368 103.815 102.261 102.238 103.314M150.614 103.787C149.647 105.383 147.254 112.807 145.074 120.966C143.878 125.467 142.893 129.324 142.893 129.546C142.893 130.087 148.096 132.029 148.784 131.739C149.564 131.409 150.742 129.38 153.123 124.208C155.326 119.445 155.776 118.905 159.407 116.704C160.497 116.049 161.378 115.274 161.378 114.984C161.378 114.055 159.809 114.428 156.793 116.065C155.034 117.022 153.848 117.479 153.848 117.213C153.848 116.962 155.005 115.425 156.414 113.797C159.067 110.734 159.436 110.011 158.342 110.011C157.591 110.011 156.344 110.988 154.134 113.276C153.267 114.186 152.395 114.869 152.22 114.794C152.044 114.718 152.74 112.676 153.771 110.257C155.151 106.996 155.546 105.749 155.258 105.439C154.676 104.803 153.819 105.924 151.609 110.194C149.934 113.439 149.717 113.721 149.916 112.426C150.039 111.612 150.6 109.372 151.163 107.469C152.143 104.152 152.22 102.948 151.47 102.948C151.28 102.948 150.895 103.33 150.614 103.794M125.813 105.177C125.736 106.297 126.724 112.533 127.09 113.217C127.437 113.864 127.467 113.872 127.474 113.248C127.481 112.883 127.262 111.544 126.998 110.269C126.717 108.946 126.442 107.624 126.182 106.289C125.999 105.368 125.838 104.875 125.82 105.177M95.7577 105.896C93.6939 106.853 93.2658 110.094 94.9637 111.938C95.882 112.935 96.1783 113.05 97.4116 112.867C99.1422 112.617 100.379 111.362 100.646 109.57C100.807 108.466 100.679 108.057 99.8666 107.068C98.8055 105.796 97.0529 105.292 95.7577 105.896ZM174.584 107.858C174.003 108.756 174.142 109.046 175.382 109.447C176.062 109.677 176.168 109.618 175.978 109.089C175.853 108.74 175.755 108.132 175.755 107.743C175.755 106.794 175.235 106.837 174.577 107.85M131.451 107.973C130.068 108.756 129.556 109.602 129.556 111.123C129.549 114.436 133.482 116.033 135.341 113.475C136.098 112.434 136.267 110.408 135.685 109.244C135.319 108.498 133.65 107.401 132.886 107.409C132.641 107.409 131.997 107.667 131.451 107.973ZM111.718 112.891C109.556 114.094 107.931 116.422 107.02 119.628C106.541 121.3 106.431 123.016 106.449 128.228C106.501 138.071 107.174 140.645 111.55 147.739C116.043 155.024 121.107 161.32 124.507 163.871C128.232 166.659 132.838 167.783 134.788 166.397C135.992 165.539 149.856 142.412 150.322 140.485C150.515 139.688 146.757 135.895 143.358 133.483C141.891 132.431 140.53 131.588 140.336 131.588C140.006 131.592 133.182 143.835 129.318 151.361C128.4 153.145 127.558 154.615 127.445 154.623C127.082 154.639 127.833 150.452 128.7 147.656C129.165 146.159 129.992 143.965 130.537 142.785L131.539 140.637L129.388 136.176C126.45 130.079 123.372 125.193 120.58 122.202C119.289 120.823 118.436 119.687 118.674 119.687C119.775 119.687 123.8 122.742 126.281 125.467C128.323 127.703 129.578 129.53 131.21 132.637C132.417 134.929 133.435 136.764 133.482 136.7C133.526 136.641 133.969 135.727 134.466 134.663L135.363 132.72L133.903 129.646C130.474 122.428 123.303 113.979 119.296 112.45C116.892 111.528 113.899 111.711 111.729 112.907M93.7525 114.154C91.9779 115.203 91.6814 117.276 93.0938 118.806C93.8367 119.604 94.1916 119.727 95.3369 119.56C97.1591 119.29 97.6933 118.73 97.6933 117.054C97.6933 115.934 97.4737 115.449 96.6395 114.686C95.4979 113.642 94.8246 113.522 93.7598 114.154M153.695 135.004C153.819 135.469 154.676 138.063 155.593 140.776C156.505 143.485 157.423 146.797 157.643 148.112C157.851 149.44 158.111 150.52 158.21 150.52C158.609 150.52 157.936 144.963 157.233 142.512C156.834 141.093 155.901 138.635 155.166 137.047C153.862 134.221 153.216 133.336 153.687 134.996M110.412 159.915C110.174 162.416 109.303 168.812 108.476 174.135C107.657 179.445 106.936 184.951 106.87 186.365L106.76 188.939L107.957 189.289C109.922 189.868 115.882 189.304 124.415 187.728C128.835 186.913 136.603 185.575 141.689 184.744C154.094 182.727 154.031 182.743 153.933 182.103C153.881 181.805 152.993 178.731 151.953 175.275C150.244 169.611 148.938 163.72 148.125 157.964L147.829 155.919L145.824 159.632C141.086 168.403 138.21 172.244 135.103 173.964C132.556 175.375 129.373 175.251 126.332 173.623C122.908 171.787 116.929 164.923 112.454 157.673C111.66 156.395 110.979 155.355 110.932 155.355C110.884 155.355 110.643 157.4 110.412 159.907" fill="#61474C"/>
<path d="M13.6748 241.003C8.81795 240.625 5.15542 239.303 2.68719 237.036C0.298577 234.769 -0.497628 231.899 0.298577 228.423C0.776299 226.459 1.81137 224.343 3.40377 222.076C5.0758 219.809 7.22555 217.467 9.85302 215.049C12.4805 212.632 15.5857 210.176 19.1686 207.683C22.7515 205.189 26.6927 202.772 30.9922 200.429C35.5306 197.936 40.9447 195.329 47.2348 192.609C53.6044 189.889 59.9741 187.433 66.3437 185.243C67.3788 184.865 68.2546 184.563 68.9711 184.336C69.7674 184.109 70.1655 183.959 70.1655 183.883C70.3246 183.807 70.484 183.089 70.6432 181.729C70.8024 180.369 70.8423 179.199 70.7626 178.216C70.6034 173.833 69.0906 171.189 66.2242 170.283C63.4376 169.376 59.1778 170.169 53.4452 172.663C51.614 173.419 49.7031 174.4 47.7125 175.609C45.8016 176.743 43.9305 177.989 42.0993 179.349C40.3476 180.633 38.7155 181.956 37.2026 183.316C35.7695 184.676 34.5751 185.96 33.6197 187.169C32.6643 188.453 32.3457 189.247 32.6643 189.549C32.9031 189.776 32.8234 189.889 32.4254 189.889C31.7088 189.889 31.4302 189.549 31.5894 188.869C31.8282 188.189 32.3856 187.32 33.2614 186.263C34.1372 185.129 35.252 183.883 36.6055 182.523C38.0386 181.163 39.631 179.803 41.3827 178.443C42.1789 177.839 42.975 177.272 43.7713 176.743C44.6471 176.139 45.3239 175.685 45.8016 175.383C49.7031 172.965 53.4452 171.189 57.0281 170.056C60.611 168.847 63.5171 168.432 65.7465 168.809C67.1 169.036 68.3342 169.565 69.4489 170.396C70.5635 171.227 71.4394 172.247 72.0763 173.456C72.4744 174.363 72.7532 175.609 72.9124 177.196C73.1512 178.783 73.191 180.52 73.0318 182.409C73.0318 182.787 73.0318 183.013 73.0318 183.089C73.1115 183.165 73.3104 183.165 73.6289 183.089C74.2659 182.863 75.0621 182.636 76.0175 182.409C77.0527 182.183 78.0876 181.993 79.1227 181.843C80.2374 181.616 81.2725 181.465 82.2279 181.389C83.263 181.239 84.0592 181.163 84.6166 181.163C85.3331 181.163 86.0497 181.239 86.7663 181.389C87.4829 181.54 87.8809 181.692 87.9606 181.843C88.1198 181.993 88.0403 182.145 87.7217 182.296C87.4829 182.372 87.1644 182.372 86.7663 182.296C85.7312 182.069 84.2583 182.069 82.3474 182.296C80.4365 182.523 78.3664 182.939 76.137 183.543C75.4204 183.693 74.7835 183.845 74.2261 183.996C73.6687 184.147 73.3503 184.223 73.2706 184.223C73.1115 184.299 72.9521 184.525 72.7929 184.903C72.7133 185.205 72.5143 185.999 72.1958 187.283C71.8772 188.869 71.3598 190.683 70.6432 192.723C69.9266 194.687 69.0906 196.727 68.1351 198.843C67.2594 200.883 66.3039 202.923 65.2688 204.963C64.2337 207.003 63.1588 208.892 62.0442 210.629C58.939 215.616 55.6746 219.999 52.2509 223.776C47.5533 228.763 42.2984 232.767 36.486 235.789C30.7534 238.812 25.0207 240.549 19.288 241.003C18.5715 241.153 17.8946 241.229 17.2577 241.229C16.7003 241.229 16.342 241.229 16.1828 241.229C16.0236 241.229 15.7051 241.192 15.2274 241.116C14.7497 241.116 14.2322 241.079 13.6748 241.003ZM2.68719 227.969C1.81137 231.143 2.24927 233.749 4.00092 235.789C5.75258 237.753 8.65871 239 12.7194 239.529C13.1971 239.605 13.834 239.643 14.6302 239.643C15.506 239.719 16.3819 239.719 17.2577 239.643C18.2132 239.643 19.1288 239.605 20.0046 239.529C20.8804 239.453 21.597 239.379 22.1544 239.303C22.6321 239.152 23.1895 239 23.8264 238.849C24.543 238.699 25.1799 238.547 25.7373 238.396C26.3742 238.169 27.1705 237.867 28.1259 237.489C29.161 237.112 30.196 236.696 31.2311 236.243C32.2662 235.789 33.2614 235.336 34.2169 234.883C35.252 234.353 36.1277 233.9 36.8443 233.523C38.2775 232.616 39.9893 231.445 41.9798 230.009C43.9704 228.499 45.5628 227.176 46.7571 226.043C49.3845 223.625 51.9323 220.829 54.4006 217.656C56.8689 214.407 59.0982 211.045 61.0887 207.569C61.8053 206.209 62.5219 204.736 63.2385 203.149C64.0347 201.563 64.7911 199.939 65.5077 198.276C66.2242 196.613 66.9011 194.989 67.538 193.403C68.1749 191.74 68.6925 190.229 69.0906 188.869C69.5683 187.283 69.8469 186.3 69.9266 185.923C70.0063 185.545 69.9664 185.356 69.8072 185.356C69.7275 185.356 69.2897 185.507 68.4934 185.809C67.6972 186.036 66.7417 186.339 65.6271 186.716C62.4422 187.849 59.2176 189.059 55.9532 190.343C52.7684 191.627 49.6234 192.949 46.5182 194.309C43.4927 195.593 40.6263 196.916 37.9192 198.276C35.2917 199.56 32.9429 200.807 30.8728 202.016C22.9107 206.7 16.5014 211.272 11.6445 215.729C6.78763 220.187 3.80187 224.267 2.68719 227.969ZM100.209 192.156C100.368 192.156 100.209 192.459 99.731 193.063C97.1832 196.312 94.7548 198.956 92.4457 200.996C90.2164 202.96 88.3851 203.603 86.9519 202.923C86.0761 202.545 85.7975 201.789 86.1159 200.656C86.5141 199.523 86.9121 198.579 87.3102 197.823C87.7084 197.067 87.9473 196.576 88.0268 196.349C88.1064 196.123 88.0667 196.009 87.9074 196.009C87.8278 196.009 87.4695 196.236 86.8325 196.689C86.1956 197.067 85.4392 197.559 84.5633 198.163C82.9709 199.22 81.8563 199.9 81.2192 200.203C80.662 200.429 80.2638 200.467 80.0249 200.316C79.6269 200.089 79.7861 199.22 80.5027 197.709C81.2192 196.199 82.2146 194.536 83.4884 192.723C83.7273 192.345 83.2895 192.609 82.1747 193.516C81.06 194.347 79.1094 195.896 76.3226 198.163C74.9691 199.296 73.6951 200.353 72.5008 201.336C71.3065 202.243 70.5899 202.772 70.3511 202.923C69.0772 203.829 68.2013 204.019 67.7236 203.489C67.4847 203.187 67.4052 202.885 67.4847 202.583C67.5644 202.28 67.9227 201.713 68.5596 200.883C69.1967 200.052 69.8336 199.22 70.4705 198.389C71.1075 197.559 72.1028 196.463 73.4563 195.103C74.7302 193.743 75.407 192.912 75.4866 192.609C75.5662 192.232 75.606 191.967 75.606 191.816C75.606 191.363 75.9245 191.136 76.5614 191.136C77.278 191.06 77.716 191.136 77.8752 191.363C77.9549 191.439 77.9946 191.513 77.9946 191.589C77.9946 191.665 77.9151 191.816 77.7558 192.043C77.5966 192.269 77.278 192.647 76.8003 193.176C76.3226 193.629 75.6459 194.385 74.77 195.443C74.1331 196.123 73.5359 196.879 72.9785 197.709C72.3416 198.465 71.7842 199.145 71.3065 199.749C70.8288 200.353 70.4705 200.883 70.2316 201.336C69.9132 201.789 69.7539 202.016 69.7539 202.016C69.7539 202.092 70.1122 201.865 70.8288 201.336C71.5454 200.732 72.4213 200.013 73.4563 199.183C75.7653 197.219 77.9549 195.48 80.0249 193.969C82.1747 192.383 83.4884 191.476 83.9661 191.249C84.3643 191.099 84.6827 191.06 84.9216 191.136C85.2401 191.136 85.3595 191.212 85.2799 191.363C85.2799 191.513 85.1604 191.703 84.9216 191.929C84.7624 192.156 84.6032 192.459 84.4439 192.836C83.9661 193.516 83.4487 194.272 82.8913 195.103C82.4135 195.933 81.9757 196.689 81.5775 197.369C81.2591 198.049 80.9804 198.653 80.7415 199.183C80.5823 199.636 80.5823 199.863 80.7415 199.863C80.8212 199.863 81.0998 199.712 81.5775 199.409C82.1349 199.032 82.7718 198.616 83.4884 198.163C84.9216 197.105 85.9965 196.387 86.713 196.009C87.5093 195.556 88.0667 195.329 88.3851 195.329C88.7833 195.329 88.9425 195.519 88.8628 195.896C88.8628 196.199 88.6239 196.916 88.1462 198.049C87.6685 199.032 87.2704 199.939 86.9519 200.769C86.713 201.525 86.8325 202.053 87.3102 202.356C87.9473 202.733 88.6638 202.733 89.46 202.356C90.3359 201.903 91.2514 201.223 92.2068 200.316C93.1623 199.409 94.2372 198.313 95.4315 197.029C96.6258 195.745 97.8997 194.385 99.2532 192.949C99.6514 192.42 99.9698 192.156 100.209 192.156Z" fill="#633B48"/>
<path d="M188.711 190.229C188.56 190.799 188.187 191.616 187.587 192.683C186.987 193.679 186.238 194.673 185.339 195.669C184.514 196.593 183.54 197.376 182.416 198.016C181.366 198.656 180.318 198.94 179.269 198.869C178.219 198.799 177.508 198.052 177.133 196.629C176.758 195.207 176.946 193.252 177.695 190.763C177.32 192.043 176.683 193.323 175.784 194.603C174.959 195.883 174.024 197.02 172.974 198.016C171.924 198.94 170.838 199.616 169.714 200.043C168.59 200.469 167.579 200.469 166.679 200.043C165.855 199.687 165.293 199.153 164.993 198.443C164.694 197.66 164.582 196.843 164.656 195.989C164.731 195.065 164.919 194.176 165.218 193.323C165.517 192.399 165.892 191.58 166.342 190.869C166.942 189.873 167.617 188.985 168.365 188.203C169.19 187.42 170.014 186.852 170.838 186.496C172.187 185.856 173.424 185.713 174.548 186.069C175.148 186.212 175.634 186.496 176.009 186.923C176.459 187.349 176.796 187.776 177.021 188.203C177.32 188.772 177.545 189.34 177.695 189.909C178.669 188.06 179.568 186.319 180.393 184.683C181.142 183.26 181.892 181.839 182.641 180.416C183.39 178.923 183.952 177.785 184.327 177.003C187.099 171.029 188.823 168.043 189.498 168.043C189.722 168.043 189.873 168.113 189.947 168.256C190.022 168.327 189.947 168.612 189.722 169.109C189.572 169.536 189.235 170.283 188.711 171.349C188.187 172.416 187.436 173.909 186.463 175.829C184.815 179.029 183.466 181.732 182.416 183.936C181.442 186.14 180.467 188.487 179.494 190.976C178.745 192.825 178.369 194.496 178.369 195.989C178.444 197.412 178.781 198.193 179.381 198.336C179.905 198.479 180.543 198.372 181.292 198.016C182.117 197.589 182.94 197.02 183.765 196.309C184.59 195.599 185.339 194.816 186.013 193.963C186.762 193.109 187.362 192.256 187.812 191.403C188.187 190.692 188.336 190.193 188.261 189.909C188.261 189.625 188.336 189.483 188.486 189.483C188.636 189.483 188.711 189.732 188.711 190.229ZM167.466 199.189C167.916 199.26 168.59 199.083 169.489 198.656C170.463 198.229 171.438 197.66 172.412 196.949C173.462 196.167 174.397 195.243 175.222 194.176C176.121 193.109 176.721 191.972 177.021 190.763C177.171 190.336 177.021 189.625 176.571 188.629C176.121 187.633 175.447 186.993 174.548 186.709C173.349 186.353 172.037 186.78 170.614 187.989C169.19 189.127 168.066 190.727 167.241 192.789C167.091 193.287 166.904 193.892 166.679 194.603C166.455 195.243 166.304 195.883 166.23 196.523C166.079 197.163 166.117 197.732 166.342 198.229C166.492 198.727 166.866 199.047 167.466 199.189ZM184.274 197.589C184.498 196.38 184.874 195.172 185.398 193.963C185.922 192.683 186.596 191.509 187.421 190.443C188.246 189.376 189.107 188.416 190.006 187.563C190.98 186.709 191.955 186.033 192.929 185.536C194.577 184.683 196.114 184.256 197.537 184.256C199.037 184.256 199.86 184.683 200.01 185.536C200.161 186.176 199.86 187.029 199.111 188.096C198.362 189.092 197.313 190.193 195.964 191.403C194.689 192.54 193.154 193.679 191.355 194.816C189.631 195.883 187.796 196.807 185.847 197.589C185.773 197.873 185.773 198.3 185.847 198.869C185.922 199.367 186.072 199.9 186.297 200.469C186.447 200.967 186.709 201.429 187.084 201.856C187.459 202.212 187.908 202.46 188.433 202.603C189.557 202.816 190.831 202.639 192.254 202.069C193.678 201.429 195.102 200.54 196.526 199.403C198.025 198.265 199.41 196.985 200.685 195.563C202.034 194.069 203.12 192.612 203.944 191.189C204.244 190.692 204.469 190.3 204.619 190.016C204.844 189.66 205.031 189.483 205.181 189.483C205.48 189.483 205.518 189.625 205.293 189.909C205.069 190.123 204.844 190.443 204.619 190.869C203.72 192.505 202.634 194.176 201.359 195.883C200.085 197.519 198.699 199.012 197.2 200.363C195.777 201.643 194.278 202.673 192.704 203.456C191.13 204.167 189.557 204.416 187.983 204.203C186.859 204.06 186.034 203.633 185.51 202.923C184.986 202.212 184.649 201.465 184.498 200.683C184.274 199.759 184.199 198.727 184.274 197.589ZM192.142 187.669C191.018 188.593 189.781 189.909 188.433 191.616C187.158 193.323 186.335 195.065 185.96 196.843C186.784 196.487 187.796 195.989 188.995 195.349C190.193 194.639 191.393 193.856 192.592 193.003C193.866 192.079 195.027 191.119 196.076 190.123C197.126 189.127 197.913 188.132 198.437 187.136C198.812 186.425 198.812 185.892 198.437 185.536C198.137 185.18 197.688 185.073 197.088 185.216C196.339 185.359 195.514 185.679 194.615 186.176C193.79 186.603 192.967 187.1 192.142 187.669ZM220.739 174.123C221.339 174.549 221.488 175.119 221.189 175.829C220.89 176.54 219.878 177.82 218.154 179.669C217.63 180.309 216.693 181.163 215.344 182.229C214.069 183.296 212.758 184.363 211.41 185.429C210.135 186.425 208.975 187.349 207.925 188.203C206.875 188.985 206.351 189.412 206.351 189.483C206.277 189.625 205.94 190.229 205.34 191.296C204.74 192.292 204.141 193.393 203.541 194.603C202.941 195.74 202.417 196.772 201.968 197.696C201.443 198.62 201.181 199.083 201.181 199.083L201.63 198.763C201.855 198.62 202.267 198.336 202.867 197.909C205.04 196.345 206.951 194.993 208.599 193.856C210.323 192.719 211.484 192.007 212.084 191.723C212.758 191.367 213.358 191.189 213.883 191.189C214.407 191.119 214.669 191.189 214.669 191.403C214.82 191.616 214.631 191.723 214.107 191.723C213.658 191.652 212.909 191.936 211.859 192.576C210.81 193.216 209.087 194.425 206.689 196.203C206.089 196.7 205.452 197.199 204.778 197.696C204.029 198.193 203.467 198.549 203.092 198.763L201.968 199.723C202.042 200.292 202.192 200.825 202.417 201.323C202.642 202.46 203.242 203.313 204.216 203.883C205.49 204.665 206.913 204.7 208.487 203.989C210.061 203.207 211.634 202.033 213.208 200.469C214.782 198.905 216.281 197.163 217.704 195.243C219.203 193.323 220.514 191.58 221.638 190.016C221.789 189.66 221.938 189.483 222.088 189.483C222.387 189.483 222.425 189.66 222.201 190.016C221.526 190.94 220.552 192.363 219.278 194.283C218.079 196.203 216.693 198.087 215.119 199.936C213.545 201.713 211.821 203.207 209.948 204.416C208.15 205.553 206.239 205.803 204.216 205.163C203.541 204.949 203.017 204.559 202.642 203.989C202.192 203.42 201.893 202.852 201.743 202.283C201.518 201.643 201.368 200.932 201.293 200.149C200.994 200.363 200.657 200.753 200.281 201.323C199.906 201.749 199.495 202.353 199.045 203.136C198.521 203.847 197.959 204.807 197.359 206.016C196.385 207.865 195.673 209.18 195.223 209.963C194.774 210.673 194.474 211.065 194.324 211.136C194.025 211.136 193.8 211.065 193.65 210.923C193.65 210.852 193.874 210.389 194.324 209.536C194.699 208.683 195.261 207.616 196.01 206.336C196.685 205.056 197.433 203.669 198.258 202.176C199.083 200.612 199.87 199.153 200.619 197.803C201.293 196.38 201.93 195.172 202.53 194.176C203.054 193.18 203.391 192.54 203.541 192.256C205.04 189.839 206.538 187.563 208.037 185.429C209.537 183.296 210.96 181.412 212.309 179.776C213.732 178.14 215.044 176.825 216.243 175.829C217.442 174.763 218.453 174.123 219.278 173.909C219.802 173.767 220.29 173.839 220.739 174.123ZM219.728 175.616C219.952 175.047 220.027 174.727 219.952 174.656C219.878 174.585 219.541 174.727 218.941 175.083C218.341 175.439 217.367 176.327 216.018 177.749C214.669 179.1 213.32 180.559 211.972 182.123C210.472 183.972 208.824 185.963 207.026 188.096C206.576 188.452 206.913 188.132 208.037 187.136C209.161 186.14 210.548 184.932 212.196 183.509C213.845 182.016 215.418 180.523 216.917 179.029C218.491 177.465 219.428 176.327 219.728 175.616ZM228.432 189.056C228.057 188.772 227.607 188.593 227.083 188.523C226.633 188.452 226.109 188.487 225.509 188.629C224.909 188.772 224.198 189.127 223.374 189.696C222.625 190.265 221.912 191.012 221.238 191.936C220.489 192.86 219.889 193.785 219.44 194.709C218.99 195.633 218.727 196.487 218.653 197.269C218.578 198.052 218.878 198.62 219.552 198.976C220.451 199.473 221.35 199.58 222.25 199.296C223.149 199.012 223.974 198.549 224.723 197.909C225.471 197.269 226.109 196.559 226.633 195.776C227.233 194.923 227.645 194.247 227.87 193.749C228.095 193.252 228.357 192.683 228.657 192.043C228.956 191.332 229.144 190.692 229.219 190.123C229.293 189.483 229.219 188.913 228.994 188.416C228.844 187.919 228.394 187.599 227.645 187.456C226.521 187.172 225.359 187.42 224.161 188.203C223.036 188.985 222.175 189.945 221.575 191.083C220.901 192.149 220.602 193.252 220.676 194.389C220.676 195.456 221.276 196.167 222.474 196.523C224.273 197.092 226.071 197.056 227.87 196.416C229.743 195.705 231.429 194.852 232.928 193.856C234.427 192.86 235.664 191.9 236.638 190.976C237.687 189.98 238.286 189.483 238.436 189.483C238.586 189.483 238.137 190.016 237.087 191.083C236.038 192.149 234.652 193.287 232.928 194.496C231.204 195.633 229.293 196.559 227.195 197.269C225.098 197.98 223.149 197.98 221.35 197.269C220.226 196.843 219.664 196.025 219.664 194.816C219.59 193.536 219.927 192.292 220.676 191.083C221.35 189.803 222.324 188.736 223.599 187.883C224.947 186.959 226.371 186.603 227.87 186.816C228.994 186.959 229.743 187.492 230.118 188.416C230.493 189.34 230.53 190.407 230.23 191.616C230.006 192.753 229.518 193.963 228.769 195.243C228.095 196.452 227.233 197.553 226.184 198.549C225.134 199.473 223.974 200.113 222.699 200.469C221.501 200.825 220.264 200.719 218.99 200.149C217.567 199.509 216.929 198.443 217.079 196.949C217.153 195.456 217.716 193.999 218.765 192.576C219.739 191.083 221.051 189.873 222.699 188.949C224.347 187.953 225.959 187.633 227.533 187.989C227.908 188.06 228.169 188.167 228.32 188.309C228.844 188.523 228.882 188.772 228.432 189.056ZM251.315 190.229C251.54 189.732 251.764 189.483 251.989 189.483C252.14 189.483 252.178 189.553 252.102 189.696C252.027 189.839 251.953 189.98 251.877 190.123C251.802 190.336 251.54 190.763 251.09 191.403C250.64 192.043 250.078 192.647 249.404 193.216C248.73 193.785 247.981 194.212 247.156 194.496C246.407 194.78 245.62 194.709 244.795 194.283C244.422 194.069 244.159 193.785 244.009 193.429C243.86 193.073 243.747 192.719 243.671 192.363C243.597 192.007 243.522 191.723 243.446 191.509C243.372 191.225 243.185 191.083 242.884 191.083C242.66 191.083 242.248 191.403 241.648 192.043C241.124 192.612 240.487 193.359 239.737 194.283C239.063 195.207 238.352 196.203 237.601 197.269C236.853 198.265 236.178 199.153 235.578 199.936C234.98 200.86 234.418 201.679 233.892 202.389C233.293 203.1 232.918 203.527 232.768 203.669C232.543 203.953 232.244 204.096 231.869 204.096C231.495 204.096 231.194 203.953 230.97 203.669C230.745 203.385 230.67 203.029 230.745 202.603C230.821 202.176 231.045 201.393 231.419 200.256C232.169 197.98 233.442 195.599 235.241 193.109C236.14 192.185 236.441 191.723 236.14 191.723C235.915 191.723 235.803 191.652 235.803 191.509C235.803 191.296 235.915 191.083 236.14 190.869C236.365 190.656 236.702 190.372 237.152 190.016C237.601 189.66 238.051 189.305 238.501 188.949C238.95 188.593 239.363 188.309 239.737 188.096C240.112 187.812 240.337 187.669 240.412 187.669C240.636 187.669 240.787 187.776 240.861 187.989C240.937 188.132 240.825 188.38 240.524 188.736C240.299 189.092 239.813 189.732 239.063 190.656C237.565 192.576 236.216 194.603 235.016 196.736C233.743 198.869 232.956 200.54 232.656 201.749L232.431 202.603L233.555 201.216C233.856 200.789 234.38 200.149 235.128 199.296C235.803 198.372 236.477 197.447 237.152 196.523C238.501 194.816 239.701 193.287 240.749 191.936C241.873 190.585 242.736 189.909 243.334 189.909C243.709 189.909 243.934 190.087 244.009 190.443C244.159 190.727 244.271 191.083 244.346 191.509C244.422 191.936 244.496 192.363 244.571 192.789C244.721 193.216 244.908 193.536 245.133 193.749C245.733 194.319 246.67 194.283 247.943 193.643C249.292 193.003 250.416 191.865 251.315 190.229ZM250.536 197.376C249.862 197.02 249.525 196.487 249.525 195.776C249.525 195.065 249.712 194.319 250.087 193.536C250.462 192.683 250.912 191.936 251.436 191.296C251.96 190.585 252.373 190.123 252.672 189.909C253.646 189.056 254.583 188.452 255.482 188.096C256.456 187.669 257.319 187.456 258.068 187.456C258.816 187.385 259.491 187.42 260.091 187.563C260.691 187.705 261.14 187.883 261.44 188.096C262.265 188.593 262.827 189.34 263.126 190.336C263.726 191.759 263.501 192.043 262.451 191.189C262.002 190.976 261.927 190.763 262.227 190.549C262.526 190.336 262.526 190.016 262.227 189.589C261.927 189.163 261.59 188.843 261.215 188.629C260.765 188.273 259.866 188.096 258.517 188.096C257.168 188.096 255.745 188.7 254.246 189.909C253.871 190.193 253.385 190.692 252.785 191.403C252.26 192.043 251.811 192.719 251.436 193.429C250.986 194.14 250.687 194.816 250.536 195.456C250.312 196.096 250.424 196.559 250.874 196.843C251.173 197.056 251.735 196.949 252.56 196.523C253.459 196.025 254.396 195.456 255.37 194.816C256.419 194.176 257.431 193.572 258.405 193.003C259.379 192.433 260.129 192.185 260.653 192.256C261.177 192.327 261.44 192.505 261.44 192.789C261.44 193.073 261.365 193.572 261.215 194.283C261.065 194.852 261.028 195.456 261.103 196.096C261.253 196.665 261.478 197.02 261.777 197.163C262.526 197.589 263.351 197.589 264.25 197.163C265.224 196.736 266.123 196.132 266.948 195.349C267.847 194.496 268.559 193.572 269.083 192.576C269.683 191.509 270.02 190.585 270.095 189.803C270.095 189.589 270.169 189.483 270.32 189.483C270.619 189.483 270.695 189.625 270.545 189.909C270.32 190.833 269.908 191.829 269.308 192.896C268.784 193.963 268.072 194.887 267.172 195.669C266.348 196.452 265.448 197.056 264.475 197.483C263.501 197.909 262.526 197.98 261.552 197.696C261.028 197.483 260.653 197.163 260.428 196.736C260.278 196.239 260.165 195.776 260.091 195.349C260.091 194.852 260.129 194.389 260.203 193.963C260.278 193.536 260.241 193.287 260.091 193.216C259.866 193.145 259.342 193.359 258.517 193.856C257.692 194.353 256.757 194.923 255.707 195.563C254.733 196.132 253.722 196.629 252.672 197.056C251.698 197.483 250.986 197.589 250.536 197.376ZM280.97 191.189C280.82 191.26 280.671 191.296 280.521 191.296C280.37 191.296 280.221 191.189 280.071 190.976C279.996 190.692 279.996 190.336 280.071 189.909C280.145 189.483 279.921 189.233 279.396 189.163C279.021 189.163 278.572 189.305 278.048 189.589C277.524 189.873 277.036 190.229 276.586 190.656C276.137 191.083 275.762 191.509 275.462 191.936C275.163 192.363 275.051 192.683 275.125 192.896C275.2 193.109 275.575 193.109 276.249 192.896C276.924 192.612 277.71 192.327 278.61 192.043C279.509 191.759 280.446 191.616 281.42 191.616C282.394 191.545 283.218 191.829 283.893 192.469C284.567 193.109 284.529 194.14 283.78 195.563C283.106 196.913 282.056 198.229 280.633 199.509C279.21 200.719 277.672 201.643 276.024 202.283C274.3 202.923 272.839 202.78 271.641 201.856C270.816 201.216 270.629 200.469 271.079 199.616C271.528 198.763 272.353 197.873 273.551 196.949C274.75 196.025 276.211 195.136 277.935 194.283C279.659 193.359 281.382 192.54 283.106 191.829C284.904 191.119 286.552 190.549 288.052 190.123C289.625 189.696 290.824 189.483 291.649 189.483C291.649 189.553 291.649 189.625 291.649 189.696C291.649 189.839 291.462 189.909 291.087 189.909C290.862 189.909 290.338 190.052 289.513 190.336C288.764 190.549 287.827 190.869 286.703 191.296C285.579 191.723 284.342 192.256 282.993 192.896C281.719 193.465 280.483 194.105 279.284 194.816C276.811 196.239 274.938 197.553 273.664 198.763C272.315 199.972 271.791 200.86 272.09 201.429C272.241 201.713 272.727 201.82 273.551 201.749C274.3 201.607 275.2 201.323 276.249 200.896C277.299 200.469 278.347 199.9 279.396 199.189C280.521 198.407 281.458 197.519 282.207 196.523C282.956 195.527 283.369 194.745 283.443 194.176C283.593 193.536 283.481 193.073 283.106 192.789C282.807 192.433 282.357 192.256 281.757 192.256C281.157 192.185 280.521 192.256 279.846 192.469C278.572 192.896 277.373 193.287 276.249 193.643C275.125 193.999 274.3 193.892 273.776 193.323C273.477 193.109 273.439 192.719 273.664 192.149C273.889 191.58 274.3 191.012 274.9 190.443C275.5 189.873 276.211 189.412 277.036 189.056C277.861 188.7 278.76 188.593 279.734 188.736C280.483 188.879 280.783 189.199 280.633 189.696C280.483 190.123 280.446 190.479 280.521 190.763C280.595 190.905 280.633 190.976 280.633 190.976L280.745 191.083C280.82 191.153 280.896 191.189 280.97 191.189Z" fill="#633B48"/>
</svg>
